<mxfile host="app.diagrams.net" agent="Mozilla/5.0 (Windows NT 10.0; Win64; x64) AppleWebKit/537.36 (KHTML, like Gecko) Chrome/134.0.0.0 Safari/537.36" version="26.1.0">
  <diagram name="Page-1" id="KY1fT06Ok0RUBzndPMjm">
    <mxGraphModel dx="1750" dy="2050" grid="1" gridSize="10" guides="1" tooltips="1" connect="1" arrows="1" fold="1" page="1" pageScale="1" pageWidth="850" pageHeight="1100" math="0" shadow="0">
      <root>
        <mxCell id="0" />
        <mxCell id="1" parent="0" />
        <mxCell id="XAqG9yTM0mnj5ErJSMa9-68" value="" style="group;strokeWidth=19;strokeColor=default;fillColor=light-dark(#33FFFF,#EDEDED);gradientColor=none;fillStyle=solid;" parent="1" vertex="1" connectable="0">
          <mxGeometry x="340" y="-50" width="790" height="520" as="geometry" />
        </mxCell>
        <mxCell id="XAqG9yTM0mnj5ErJSMa9-69" style="edgeStyle=orthogonalEdgeStyle;rounded=0;orthogonalLoop=1;jettySize=auto;html=1;exitX=1;exitY=0.5;exitDx=0;exitDy=0;" parent="XAqG9yTM0mnj5ErJSMa9-68" source="XAqG9yTM0mnj5ErJSMa9-67" edge="1">
          <mxGeometry relative="1" as="geometry">
            <mxPoint x="800.1282051282051" y="264.9056603773585" as="targetPoint" />
          </mxGeometry>
        </mxCell>
        <mxCell id="XAqG9yTM0mnj5ErJSMa9-67" value="" style="rounded=0;whiteSpace=wrap;html=1;" parent="XAqG9yTM0mnj5ErJSMa9-68" vertex="1">
          <mxGeometry width="790" height="520" as="geometry" />
        </mxCell>
        <mxCell id="XAqG9yTM0mnj5ErJSMa9-2" value="Main Menu" style="swimlane;fontStyle=0;childLayout=stackLayout;horizontal=1;startSize=26;fillColor=none;horizontalStack=0;resizeParent=1;resizeParentMax=0;resizeLast=0;collapsible=1;marginBottom=0;whiteSpace=wrap;html=1;" parent="XAqG9yTM0mnj5ErJSMa9-68" vertex="1">
          <mxGeometry x="30.384615384615383" y="95.16981132075472" width="141.7948717948718" height="77.0188679245283" as="geometry" />
        </mxCell>
        <mxCell id="XAqG9yTM0mnj5ErJSMa9-3" value="To-Do Lists" style="text;strokeColor=none;fillColor=none;align=left;verticalAlign=top;spacingLeft=4;spacingRight=4;overflow=hidden;rotatable=0;points=[[0,0.5],[1,0.5]];portConstraint=eastwest;whiteSpace=wrap;html=1;" parent="XAqG9yTM0mnj5ErJSMa9-2" vertex="1">
          <mxGeometry y="26" width="141.7948717948718" height="25.509433962264147" as="geometry" />
        </mxCell>
        <mxCell id="XAqG9yTM0mnj5ErJSMa9-4" value="New List Button" style="text;strokeColor=none;fillColor=none;align=left;verticalAlign=top;spacingLeft=4;spacingRight=4;overflow=hidden;rotatable=0;points=[[0,0.5],[1,0.5]];portConstraint=eastwest;whiteSpace=wrap;html=1;" parent="XAqG9yTM0mnj5ErJSMa9-2" vertex="1">
          <mxGeometry y="51.50943396226415" width="141.7948717948718" height="25.509433962264147" as="geometry" />
        </mxCell>
        <mxCell id="XAqG9yTM0mnj5ErJSMa9-6" value="Holding on a list" style="swimlane;fontStyle=0;childLayout=stackLayout;horizontal=1;startSize=26;fillColor=none;horizontalStack=0;resizeParent=1;resizeParentMax=0;resizeLast=0;collapsible=1;marginBottom=0;whiteSpace=wrap;html=1;" parent="XAqG9yTM0mnj5ErJSMa9-68" vertex="1">
          <mxGeometry x="222.82051282051282" y="95.16981132075472" width="141.7948717948718" height="77.0188679245283" as="geometry" />
        </mxCell>
        <mxCell id="XAqG9yTM0mnj5ErJSMa9-7" value="Delete List" style="text;strokeColor=none;fillColor=none;align=left;verticalAlign=top;spacingLeft=4;spacingRight=4;overflow=hidden;rotatable=0;points=[[0,0.5],[1,0.5]];portConstraint=eastwest;whiteSpace=wrap;html=1;" parent="XAqG9yTM0mnj5ErJSMa9-6" vertex="1">
          <mxGeometry y="26" width="141.7948717948718" height="25.509433962264147" as="geometry" />
        </mxCell>
        <mxCell id="XAqG9yTM0mnj5ErJSMa9-8" value="Edit List" style="text;strokeColor=none;fillColor=none;align=left;verticalAlign=top;spacingLeft=4;spacingRight=4;overflow=hidden;rotatable=0;points=[[0,0.5],[1,0.5]];portConstraint=eastwest;whiteSpace=wrap;html=1;" parent="XAqG9yTM0mnj5ErJSMa9-6" vertex="1">
          <mxGeometry y="51.50943396226415" width="141.7948717948718" height="25.509433962264147" as="geometry" />
        </mxCell>
        <mxCell id="XAqG9yTM0mnj5ErJSMa9-10" style="edgeStyle=orthogonalEdgeStyle;rounded=0;orthogonalLoop=1;jettySize=auto;html=1;exitX=1;exitY=0.5;exitDx=0;exitDy=0;entryX=0.003;entryY=0.113;entryDx=0;entryDy=0;entryPerimeter=0;" parent="XAqG9yTM0mnj5ErJSMa9-68" source="XAqG9yTM0mnj5ErJSMa9-2" target="XAqG9yTM0mnj5ErJSMa9-6" edge="1">
          <mxGeometry relative="1" as="geometry" />
        </mxCell>
        <mxCell id="XAqG9yTM0mnj5ErJSMa9-15" value="Tap on a list" style="swimlane;fontStyle=0;childLayout=stackLayout;horizontal=1;startSize=26;fillColor=none;horizontalStack=0;resizeParent=1;resizeParentMax=0;resizeLast=0;collapsible=1;marginBottom=0;whiteSpace=wrap;html=1;" parent="XAqG9yTM0mnj5ErJSMa9-68" vertex="1">
          <mxGeometry x="222.82051282051282" y="186.41509433962264" width="141.7948717948718" height="77.0188679245283" as="geometry" />
        </mxCell>
        <mxCell id="XAqG9yTM0mnj5ErJSMa9-29" value="List tasks" style="text;strokeColor=none;fillColor=none;align=left;verticalAlign=top;spacingLeft=4;spacingRight=4;overflow=hidden;rotatable=0;points=[[0,0.5],[1,0.5]];portConstraint=eastwest;whiteSpace=wrap;html=1;" parent="XAqG9yTM0mnj5ErJSMa9-15" vertex="1">
          <mxGeometry y="26" width="141.7948717948718" height="25.509433962264147" as="geometry" />
        </mxCell>
        <mxCell id="XAqG9yTM0mnj5ErJSMa9-36" value="Create new task" style="text;strokeColor=none;fillColor=none;align=left;verticalAlign=top;spacingLeft=4;spacingRight=4;overflow=hidden;rotatable=0;points=[[0,0.5],[1,0.5]];portConstraint=eastwest;whiteSpace=wrap;html=1;" parent="XAqG9yTM0mnj5ErJSMa9-15" vertex="1">
          <mxGeometry y="51.50943396226415" width="141.7948717948718" height="25.509433962264147" as="geometry" />
        </mxCell>
        <mxCell id="XAqG9yTM0mnj5ErJSMa9-19" style="edgeStyle=orthogonalEdgeStyle;rounded=0;orthogonalLoop=1;jettySize=auto;html=1;exitX=1;exitY=0.5;exitDx=0;exitDy=0;entryX=0;entryY=0.25;entryDx=0;entryDy=0;" parent="XAqG9yTM0mnj5ErJSMa9-68" source="XAqG9yTM0mnj5ErJSMa9-3" target="XAqG9yTM0mnj5ErJSMa9-15" edge="1">
          <mxGeometry relative="1" as="geometry" />
        </mxCell>
        <mxCell id="XAqG9yTM0mnj5ErJSMa9-20" value="Create new list" style="swimlane;fontStyle=0;childLayout=stackLayout;horizontal=1;startSize=26;fillColor=none;horizontalStack=0;resizeParent=1;resizeParentMax=0;resizeLast=0;collapsible=1;marginBottom=0;whiteSpace=wrap;html=1;" parent="XAqG9yTM0mnj5ErJSMa9-68" vertex="1">
          <mxGeometry x="212.69230769230768" y="294.33962264150944" width="141.7948717948718" height="102.52830188679246" as="geometry" />
        </mxCell>
        <mxCell id="XAqG9yTM0mnj5ErJSMa9-21" value="Title" style="text;strokeColor=none;fillColor=none;align=left;verticalAlign=top;spacingLeft=4;spacingRight=4;overflow=hidden;rotatable=0;points=[[0,0.5],[1,0.5]];portConstraint=eastwest;whiteSpace=wrap;html=1;" parent="XAqG9yTM0mnj5ErJSMa9-20" vertex="1">
          <mxGeometry y="26" width="141.7948717948718" height="25.50943396226415" as="geometry" />
        </mxCell>
        <mxCell id="XAqG9yTM0mnj5ErJSMa9-22" value="Description" style="text;strokeColor=none;fillColor=none;align=left;verticalAlign=top;spacingLeft=4;spacingRight=4;overflow=hidden;rotatable=0;points=[[0,0.5],[1,0.5]];portConstraint=eastwest;whiteSpace=wrap;html=1;" parent="XAqG9yTM0mnj5ErJSMa9-20" vertex="1">
          <mxGeometry y="51.509433962264154" width="141.7948717948718" height="25.50943396226415" as="geometry" />
        </mxCell>
        <mxCell id="XAqG9yTM0mnj5ErJSMa9-23" value="Location" style="text;strokeColor=none;fillColor=none;align=left;verticalAlign=top;spacingLeft=4;spacingRight=4;overflow=hidden;rotatable=0;points=[[0,0.5],[1,0.5]];portConstraint=eastwest;whiteSpace=wrap;html=1;" parent="XAqG9yTM0mnj5ErJSMa9-20" vertex="1">
          <mxGeometry y="77.01886792452831" width="141.7948717948718" height="25.50943396226415" as="geometry" />
        </mxCell>
        <mxCell id="XAqG9yTM0mnj5ErJSMa9-24" style="edgeStyle=orthogonalEdgeStyle;rounded=0;orthogonalLoop=1;jettySize=auto;html=1;exitX=1;exitY=0.75;exitDx=0;exitDy=0;entryX=0.003;entryY=0.154;entryDx=0;entryDy=0;entryPerimeter=0;" parent="XAqG9yTM0mnj5ErJSMa9-68" source="XAqG9yTM0mnj5ErJSMa9-2" target="XAqG9yTM0mnj5ErJSMa9-20" edge="1">
          <mxGeometry relative="1" as="geometry" />
        </mxCell>
        <mxCell id="XAqG9yTM0mnj5ErJSMa9-25" value="Edit list" style="swimlane;fontStyle=0;childLayout=stackLayout;horizontal=1;startSize=26;fillColor=none;horizontalStack=0;resizeParent=1;resizeParentMax=0;resizeLast=0;collapsible=1;marginBottom=0;whiteSpace=wrap;html=1;" parent="XAqG9yTM0mnj5ErJSMa9-68" vertex="1">
          <mxGeometry x="415.2564102564102" y="68.67924528301887" width="141.7948717948718" height="102.52830188679246" as="geometry" />
        </mxCell>
        <mxCell id="XAqG9yTM0mnj5ErJSMa9-26" value="Edit title" style="text;strokeColor=none;fillColor=none;align=left;verticalAlign=top;spacingLeft=4;spacingRight=4;overflow=hidden;rotatable=0;points=[[0,0.5],[1,0.5]];portConstraint=eastwest;whiteSpace=wrap;html=1;" parent="XAqG9yTM0mnj5ErJSMa9-25" vertex="1">
          <mxGeometry y="26" width="141.7948717948718" height="25.50943396226415" as="geometry" />
        </mxCell>
        <mxCell id="XAqG9yTM0mnj5ErJSMa9-27" value="Edit description" style="text;strokeColor=none;fillColor=none;align=left;verticalAlign=top;spacingLeft=4;spacingRight=4;overflow=hidden;rotatable=0;points=[[0,0.5],[1,0.5]];portConstraint=eastwest;whiteSpace=wrap;html=1;" parent="XAqG9yTM0mnj5ErJSMa9-25" vertex="1">
          <mxGeometry y="51.509433962264154" width="141.7948717948718" height="25.50943396226415" as="geometry" />
        </mxCell>
        <mxCell id="XAqG9yTM0mnj5ErJSMa9-28" value="Edit location" style="text;strokeColor=none;fillColor=none;align=left;verticalAlign=top;spacingLeft=4;spacingRight=4;overflow=hidden;rotatable=0;points=[[0,0.5],[1,0.5]];portConstraint=eastwest;whiteSpace=wrap;html=1;" parent="XAqG9yTM0mnj5ErJSMa9-25" vertex="1">
          <mxGeometry y="77.01886792452831" width="141.7948717948718" height="25.50943396226415" as="geometry" />
        </mxCell>
        <mxCell id="XAqG9yTM0mnj5ErJSMa9-30" style="edgeStyle=orthogonalEdgeStyle;rounded=0;orthogonalLoop=1;jettySize=auto;html=1;exitX=1;exitY=0.5;exitDx=0;exitDy=0;entryX=0.018;entryY=0.135;entryDx=0;entryDy=0;entryPerimeter=0;" parent="XAqG9yTM0mnj5ErJSMa9-68" source="XAqG9yTM0mnj5ErJSMa9-8" target="XAqG9yTM0mnj5ErJSMa9-25" edge="1">
          <mxGeometry relative="1" as="geometry" />
        </mxCell>
        <mxCell id="XAqG9yTM0mnj5ErJSMa9-37" value="Tap on a task" style="swimlane;fontStyle=0;childLayout=stackLayout;horizontal=1;startSize=26;fillColor=none;horizontalStack=0;resizeParent=1;resizeParentMax=0;resizeLast=0;collapsible=1;marginBottom=0;whiteSpace=wrap;html=1;" parent="XAqG9yTM0mnj5ErJSMa9-68" vertex="1">
          <mxGeometry x="415.2564102564102" y="211.9245283018868" width="141.7948717948718" height="51.509433962264154" as="geometry" />
        </mxCell>
        <mxCell id="XAqG9yTM0mnj5ErJSMa9-38" value="List task details" style="text;strokeColor=none;fillColor=none;align=left;verticalAlign=top;spacingLeft=4;spacingRight=4;overflow=hidden;rotatable=0;points=[[0,0.5],[1,0.5]];portConstraint=eastwest;whiteSpace=wrap;html=1;" parent="XAqG9yTM0mnj5ErJSMa9-37" vertex="1">
          <mxGeometry y="26" width="141.7948717948718" height="25.50943396226415" as="geometry" />
        </mxCell>
        <mxCell id="XAqG9yTM0mnj5ErJSMa9-41" style="edgeStyle=orthogonalEdgeStyle;rounded=0;orthogonalLoop=1;jettySize=auto;html=1;exitX=1;exitY=0.5;exitDx=0;exitDy=0;entryX=0;entryY=0.25;entryDx=0;entryDy=0;" parent="XAqG9yTM0mnj5ErJSMa9-68" source="XAqG9yTM0mnj5ErJSMa9-29" target="XAqG9yTM0mnj5ErJSMa9-37" edge="1">
          <mxGeometry relative="1" as="geometry" />
        </mxCell>
        <mxCell id="XAqG9yTM0mnj5ErJSMa9-43" value="Holding on a task" style="swimlane;fontStyle=0;childLayout=stackLayout;horizontal=1;startSize=26;fillColor=none;horizontalStack=0;resizeParent=1;resizeParentMax=0;resizeLast=0;collapsible=1;marginBottom=0;whiteSpace=wrap;html=1;" parent="XAqG9yTM0mnj5ErJSMa9-68" vertex="1">
          <mxGeometry x="415.2564102564102" y="274.7169811320755" width="141.7948717948718" height="77.0188679245283" as="geometry" />
        </mxCell>
        <mxCell id="XAqG9yTM0mnj5ErJSMa9-44" value="Delete task" style="text;strokeColor=none;fillColor=none;align=left;verticalAlign=top;spacingLeft=4;spacingRight=4;overflow=hidden;rotatable=0;points=[[0,0.5],[1,0.5]];portConstraint=eastwest;whiteSpace=wrap;html=1;" parent="XAqG9yTM0mnj5ErJSMa9-43" vertex="1">
          <mxGeometry y="26" width="141.7948717948718" height="25.509433962264147" as="geometry" />
        </mxCell>
        <mxCell id="XAqG9yTM0mnj5ErJSMa9-45" value="Edit task" style="text;strokeColor=none;fillColor=none;align=left;verticalAlign=top;spacingLeft=4;spacingRight=4;overflow=hidden;rotatable=0;points=[[0,0.5],[1,0.5]];portConstraint=eastwest;whiteSpace=wrap;html=1;" parent="XAqG9yTM0mnj5ErJSMa9-43" vertex="1">
          <mxGeometry y="51.50943396226415" width="141.7948717948718" height="25.509433962264147" as="geometry" />
        </mxCell>
        <mxCell id="XAqG9yTM0mnj5ErJSMa9-47" style="edgeStyle=orthogonalEdgeStyle;rounded=0;orthogonalLoop=1;jettySize=auto;html=1;exitX=1;exitY=0.5;exitDx=0;exitDy=0;entryX=0;entryY=0.25;entryDx=0;entryDy=0;" parent="XAqG9yTM0mnj5ErJSMa9-68" source="XAqG9yTM0mnj5ErJSMa9-29" target="XAqG9yTM0mnj5ErJSMa9-43" edge="1">
          <mxGeometry relative="1" as="geometry" />
        </mxCell>
        <mxCell id="XAqG9yTM0mnj5ErJSMa9-48" value="Edit task" style="swimlane;fontStyle=0;childLayout=stackLayout;horizontal=1;startSize=26;fillColor=none;horizontalStack=0;resizeParent=1;resizeParentMax=0;resizeLast=0;collapsible=1;marginBottom=0;whiteSpace=wrap;html=1;" parent="XAqG9yTM0mnj5ErJSMa9-68" vertex="1">
          <mxGeometry x="597.5641025641025" y="325.7358490566038" width="141.7948717948718" height="102.52830188679246" as="geometry" />
        </mxCell>
        <mxCell id="XAqG9yTM0mnj5ErJSMa9-49" value="Edit title" style="text;strokeColor=none;fillColor=none;align=left;verticalAlign=top;spacingLeft=4;spacingRight=4;overflow=hidden;rotatable=0;points=[[0,0.5],[1,0.5]];portConstraint=eastwest;whiteSpace=wrap;html=1;" parent="XAqG9yTM0mnj5ErJSMa9-48" vertex="1">
          <mxGeometry y="26" width="141.7948717948718" height="25.50943396226415" as="geometry" />
        </mxCell>
        <mxCell id="XAqG9yTM0mnj5ErJSMa9-50" value="Edit description" style="text;strokeColor=none;fillColor=none;align=left;verticalAlign=top;spacingLeft=4;spacingRight=4;overflow=hidden;rotatable=0;points=[[0,0.5],[1,0.5]];portConstraint=eastwest;whiteSpace=wrap;html=1;" parent="XAqG9yTM0mnj5ErJSMa9-48" vertex="1">
          <mxGeometry y="51.509433962264154" width="141.7948717948718" height="25.50943396226415" as="geometry" />
        </mxCell>
        <mxCell id="XAqG9yTM0mnj5ErJSMa9-51" value="Edit deadline" style="text;strokeColor=none;fillColor=none;align=left;verticalAlign=top;spacingLeft=4;spacingRight=4;overflow=hidden;rotatable=0;points=[[0,0.5],[1,0.5]];portConstraint=eastwest;whiteSpace=wrap;html=1;" parent="XAqG9yTM0mnj5ErJSMa9-48" vertex="1">
          <mxGeometry y="77.01886792452831" width="141.7948717948718" height="25.50943396226415" as="geometry" />
        </mxCell>
        <mxCell id="XAqG9yTM0mnj5ErJSMa9-52" style="edgeStyle=orthogonalEdgeStyle;rounded=0;orthogonalLoop=1;jettySize=auto;html=1;exitX=1;exitY=0.5;exitDx=0;exitDy=0;entryX=0;entryY=0.152;entryDx=0;entryDy=0;entryPerimeter=0;" parent="XAqG9yTM0mnj5ErJSMa9-68" source="XAqG9yTM0mnj5ErJSMa9-45" target="XAqG9yTM0mnj5ErJSMa9-48" edge="1">
          <mxGeometry relative="1" as="geometry" />
        </mxCell>
        <mxCell id="XAqG9yTM0mnj5ErJSMa9-53" value="Create task" style="swimlane;fontStyle=0;childLayout=stackLayout;horizontal=1;startSize=26;fillColor=none;horizontalStack=0;resizeParent=1;resizeParentMax=0;resizeLast=0;collapsible=1;marginBottom=0;whiteSpace=wrap;html=1;" parent="XAqG9yTM0mnj5ErJSMa9-68" vertex="1">
          <mxGeometry x="405.1282051282051" y="372.8301886792453" width="141.7948717948718" height="102.52830188679246" as="geometry" />
        </mxCell>
        <mxCell id="XAqG9yTM0mnj5ErJSMa9-54" value="Title" style="text;strokeColor=none;fillColor=none;align=left;verticalAlign=top;spacingLeft=4;spacingRight=4;overflow=hidden;rotatable=0;points=[[0,0.5],[1,0.5]];portConstraint=eastwest;whiteSpace=wrap;html=1;" parent="XAqG9yTM0mnj5ErJSMa9-53" vertex="1">
          <mxGeometry y="26" width="141.7948717948718" height="25.50943396226415" as="geometry" />
        </mxCell>
        <mxCell id="XAqG9yTM0mnj5ErJSMa9-55" value="Description" style="text;strokeColor=none;fillColor=none;align=left;verticalAlign=top;spacingLeft=4;spacingRight=4;overflow=hidden;rotatable=0;points=[[0,0.5],[1,0.5]];portConstraint=eastwest;whiteSpace=wrap;html=1;" parent="XAqG9yTM0mnj5ErJSMa9-53" vertex="1">
          <mxGeometry y="51.509433962264154" width="141.7948717948718" height="25.50943396226415" as="geometry" />
        </mxCell>
        <mxCell id="XAqG9yTM0mnj5ErJSMa9-56" value="Deadline" style="text;strokeColor=none;fillColor=none;align=left;verticalAlign=top;spacingLeft=4;spacingRight=4;overflow=hidden;rotatable=0;points=[[0,0.5],[1,0.5]];portConstraint=eastwest;whiteSpace=wrap;html=1;" parent="XAqG9yTM0mnj5ErJSMa9-53" vertex="1">
          <mxGeometry y="77.01886792452831" width="141.7948717948718" height="25.50943396226415" as="geometry" />
        </mxCell>
        <mxCell id="XAqG9yTM0mnj5ErJSMa9-57" style="edgeStyle=orthogonalEdgeStyle;rounded=0;orthogonalLoop=1;jettySize=auto;html=1;exitX=1;exitY=0.5;exitDx=0;exitDy=0;entryX=-0.006;entryY=0.144;entryDx=0;entryDy=0;entryPerimeter=0;" parent="XAqG9yTM0mnj5ErJSMa9-68" source="XAqG9yTM0mnj5ErJSMa9-36" target="XAqG9yTM0mnj5ErJSMa9-53" edge="1">
          <mxGeometry relative="1" as="geometry" />
        </mxCell>
        <mxCell id="XAqG9yTM0mnj5ErJSMa9-73" value="" style="group" parent="1" vertex="1" connectable="0">
          <mxGeometry x="150" y="30" width="80" height="150" as="geometry" />
        </mxCell>
        <mxCell id="XAqG9yTM0mnj5ErJSMa9-72" value="" style="shape=image;verticalLabelPosition=bottom;labelBackgroundColor=default;verticalAlign=top;imageAspect=0;image=data:image/png,iVBORw0KGgoAAAANSUhEUgAAATAAAAKGCAIAAABC4lBRAAAgAElEQVR4AeydB1wUR9/HMdaoie9j2pOmSUzRqNEYuygoioIIUhTFhooiKCggAgoCFlCkiEgTpUlHwELvvR/luKMe5Rpwd1wvgFx5Axv3uRx6nIJimf3MR2d3Zmf+8539MW1vR27O0PHzzz8bGBiIwAEIAALjQaCoqGjO0CEH/QcEOR61APIEBP4hAAQJHgVA4C0iAAT5FlUGMAUQAIIEzwAg8BYRAIJ8iyoDmAIIAEGCZwAQeIsIAEG+RZUBTAEEgCDBMwAIvEUEgCDfosr4QEwRCAT9/f0DAwMS5YWu8/l8iesf1CkQ5AdV3eNfWD6fj8G0PnmSSCQSRSLRwMAAl8uFxEkgEB4+fFRaWiZdk3w+H4VC1dXV9ff3j395xtqCt0iQvb29LBYbcvCfTx6vt7e3VyAQwAUfGBjgcDjS6wyODDxvFQE+n9/c3OLi4nrlinNtLTInJ+/OnXseHp4BAffS0zOKi0uvXHE6fdq8tLRUSv1yudybN70MDAzj4x92d3dLLyCZTCkpKY2Jib13Lygg4F5YWERaWkZLC6avr0/6jcNDk5NT6+sbhhvW39/f3NzS/JyjBYfDD09H+pWxESSF0pOfX/D4ceLjx4np6Zltbe3iubJY7OrqmspKBIPB6Ovrq6mpDQ+PDAuLqKmp7e3thWMWF5d6efm4uLi5uLjdvRvU1NQ8MDCQkPAwIiKqu5sERysvr/D29mtubhmOBo4DPG8nAR6Pl52d4+Bw+eHDR15e3ufOnT9/3u7Spau2tvZnz1pdv+4aGBjk6Hj53r0g8QdDoixMJsvR8crOnTrm5pa3b/s2NjY9t6lks9kFBYXOzi6GhsZHjhyD3NGjhoaGxufO2URFxRAIhJd6hNTUdvr4+A9XckhIqIXFORsb2+Hu4kXHxMQkCfuln46NIMvLK8+csTAzO+voeNnV1aOkpBTOtaMDGxQUevy4saPj5ebmlqqqant7RyOjU0ePHrewOFdZWQXH9PcP0NbWNTE5Y2Nju2uX3rVrLng8wdDQeN06xZSUVAgEj8ezsjq/ePGfycmpz60GODXgeQsJ9Pf3Y7G4rKxsZ2cXGxvb9PSMxsam8vLK+vqGzMwsa+sLZ89apaWlo9FouIsElwKPJ5SUlBEIREiQbm4ecXEJenoHnZ1dcDgcHA3ysNnsuLiEY8eMTE3NvL19798PDwm5HxQUEhoaFhER5eBwad++Q1euOLe0YEbUZENDY2tr68AAf/VqeScnFx7vf02ISCRisdjLl6+2s3Pw9w+QcL6+/lZWF1RUdtBoNAnzpJyOjSBTUtJOnDj55EkSCoVuaGikUChsNruxsQmHw9fXNwYEBB45cszc3LKhoRGJrIuOji0rK09MTNq1a29YWARsnL9/gJXV+YqKyp4eqq/vHX39o+XlFYaGxsuXr7Gxse3owIpEopyc3D179i1YsBgIEub2bnk4HE5sbNzx40YNDY0ikQiJrHNxcUMgqvh8fl0dytbW3sPDk81mDy9Uc3OLu7vnlSvOmZlZFy5ctLGx9fX1P3rU0NfXv7OzUyJ+a2ubk9M1d3fPtLSMsLAIa+sLRkanjIxOmZqa3b7tk5iYFBgYfPTo8Zyc3L6+EQai7u43XVxc2Wz2cwVJIBB/+eX35mZMTU1tbS2Sx+M9fpzY29tbU1OLRNah0WglpW2enl6ya3JsBBkXl7Bjh6aLi6uf353c3DwOh4NCoS9dcoqMjOZyuRwO9+7dwHPnbKA6YDCYCES1t7fvsWMnUlPTYZT+/gGnT5snJaXU1ze4u980NDSuqqo2NDQ2NjbZs2d/VFQMCoU+edLU2vrCunUKQJAwt3fL09raZmfn4Od3BzK7rKzc0tK6rKxcJBI9ffo0Li7BxMSsvr5heKH6+vpLS8svXbp6+rS5mtpOZWVVMzPLyMhoEul/wxn4LhKJXF1dU1hYdPmyk77+0fPn7Xx8/O7dC7p+3fXYsRPQ+DMlJQ2Lxb2oheRwOJ2dnQMDA6am5nv3HqBSqVIEicXirl93dXX1IBCIysqqRGLn9euut27dZjJZwcGhW7aolJYOFlCWYwwEyefzc3PzDQ1PnjljcebM2dOnzZOTU1pbWyMjo/Py8qECBwWFwIKkUqn370doae0+dswIgfhXl3XnTp3jx40sLa1PnTp9/344hUIxNDT29PRydLxiaGhsZnZWX98gMjJ62zY1IEhZavctjFNdXXvq1OmiomLItoqKSlNTs7i4BB6PJxKJiotLrKzOZ2Zmv8hyBKLq8GGDX375fd06hYCAQDqd8aKYIpEoKyv76tVr4eGRDx7E370b6OvrHxER9eBB/IULdv7+ASQSWcq9aWkZ16/foNFoMgry7FlrK6sLra1tv/++pLW17exZ64sXL4lEIiqVqqKyIykpRUpe4kFjI0g8nlBYWNzQ0IhCoW1sbM+ft2MwGHw+f2DgnzUlWJB8Pp/L5aJQ6KiomDNnzoaHR7LZHMggf/+AgwePXL/uGhISmpGRRaVSRSKRoaGxj48fAlF15MgxeXnFsLCI0tIyVVV1IEjxWnyH/AhEtZGRCdQkikQiHA7v4uJmaGiclJQ8MDBQWlpubX1BvN8EFw3q07q6epiamm3bpqaissPB4VJSUnJPTw8cR8JDJHa2t3c8eBB//LjR4cMGJ06cPHDgsL39pfz8wpYWDPQnQOIWqKEWCoUuLm7KyqoEAlFGQV6+7HT16jUCgbh69XoisfPyZSdXV4/+/v7Y2DgFBaU32kL29vZmZ+eEh0eyWGwikWhra3/u3Pmurq6mpmZo4CcSiWBBFhQUxsbGEYlECqXH3PzcpUtX4BlUf/+ACxfsoW4tjAkSJJ1Of/w40d3dE4vF1dc3AEHCfN45T0ND49mz1hERUZDlAwMDDQ2NPj5+MTEPBgYGsrNzLC2t/575G16uhoZGZ+frdnYOjx8nnj1rZW5u6ed3x8TkzL17wc/ttcLpR0XF+Pj4ZWVlFxUVh4SE2dtfampqHp4+dAWHw3l7+7a1tV+7dkN2QeJw+PLyioqKSi6XGxERxePxyssrKisRGEyrmpqmldX5NzqG7OvrS0pKNjQ0vnLF2cHh0v79+sHB95HIOnv7yyEh96HpMliQcXEJ+/frnztnc/Gi4+HDBlFRMRwOF2IhXZA8Ho9KpT19+hQI8kUP0ztxnUql3rlz19zckkKhwAZzOBzy0HHr1u2LFx2f2xFta2tLTU1raGik0WiOjlfc3DySklJ27drr4HCFQBh8x+BFB5lMZjAYqanpd+7cbWxsam/v4HD+6ZQNvyUvL19eXjE/v9DJ6bosghyaZV1z44Z7ZGS0hAsPj7x61VlRcQsG0zo8oxddGYMuq0gk6unpefw40cVlcFwbExOHw+HxeHxkZHR2dg40hqysRCQlJZNIZAKBGB0d6+R07dKlq9HRsV1dXbBlFRWIjIwsMvlfPfuEhEdFRcVc7uAAAzp6enqCg++DdchnPN6x/wcG+JWVCFNTs5s3b7W0YCDrBQIBDof39w8wN7fMycmTXiRo2UNHZ4+NzYXr110rK6v6+59Kv0UkEsXFJXh6erW3d0iPmZ9fsGmTcnl55e3bvurqWkRip6Wl9eHDBjQabcsWFW9vv+HrkH5+ASdPmlpZnR/uLlywCw6+Lz1HidCxESTU86ZS/x4D0+BxY39/P2x9f38/j8eDxNnX19fT00MikSUWfwcGBvr7+8VfyhGJRMPf1BGJRFzuP0lJFAacvhME2Gx2WlrGuXM2Z89aeXv7hoTc9/b2tbNzOH/eLjk5tbd3hHdomEzW1avXdu7UCQ4OxeFeOE0qgYJMHmwM4AdSIhQ+7ezsjIuLJ5MpKBT6wYP4obcLijIyMvv6+qKjH6DR9cNnZdlsNgJRjUBUDXPV9fUNUlpjOFNxz5gJUjxR4AcEpBPg8Xg1NbWBgcFOTtcgFxAQWFmJGFGNIpGov7+/vLwyNzdP9oGZdGNeFPr06VOhUAiH9vf/6xS+PrYeIMix5QlSewkCfX19BAIBg8HgcDh4sv0l7n8fowJBvo+1Csr0zhIAgnxnqw4Y/j4SAIJ8H2sVlOmdJQAE+c5WHTD8fSQABPk+1ioo0ztLAAjyna06YPj7SAAI8n2sVVCmd5YAEOQ7W3XA8PeRABDk+1iroEzvLAFJQc6bN09fX5/zMgeXy+0DByAACAwj0NvbO/TFjJeQU1ZW1pyh458NW+fNm7dnz56WlzkwGEwrOAABQOB5BDAYzMuIqSU2NvZfgvzpp592796NBAcgAAiMB4GwsLA5Q8c/LSQQ5HjUAsgTEPiHABAkeBQAgbeIABDkW1QZwBRAAAgSPAOAwFtEAAjyLaoMYAogAAQJngFA4C0iAAT5FlUGMAUQAIIEzwAg8BYRAIJ8iyoDmAIIAEGCZwAQeIsIAEG+RZUBTAEEPnRBZmdng4cAEHh7CLy6IEtKSoKCgmxffDg5OT18+HBsi/r48WNnZ2dbW9tXE1J0dPTFixdtbW1ramqQSKSZmdm8efN27do1tkaC1ACBVybw6oJMS0vT19ef/eJj/vz5V69efWXLnnvjjRs3Fi5cOHv27IiIiOdGkH7Rysrqyy+/nD17dlVVFRKJXLdu3YQJE37++Wfpd0GhJSUlbm5u9vb29+7dkyU+iAMIvAKBVxdkdnb2+fPnNz075s+fLycn98knnyxZsgS6tnPnTm9v71ewScotV65c+eabb+Tk5EJCQqREe1GQqanppEmT5OTkIEGGhITs3bvXxcXlRfHFr2dkZKxdu/abb745cOCA+HXgBwTGkMCrC7K6urqoqCj72WFhYSEnJ/fbb785OztD13JycsrKymBbS4YO+PSlPPn5+ZWVlUgkUoogS0tLi4uLob7oixKXEGRVVVV+fn55ebl4/NraWqhc4heRSGRqauqiRYumT5+ura0tEYREIisrK/Pz84dfB1cAgZci8OqClMjG3t5eTk5u0aJFPj4+4kElJSUeHh7Kyso//fTT999/v3TpUmNj4ydPnojHeZE/Pz//3Llzq1atmjt37h9//HHx4sVz585JtJClpaXOzs6rV6+eO3fu999//+eff54+fbq4uPi5aUoI8vDhw3Pnzl27di0UGYFAXLx48a+//vruu+++/fbbX3/91cTEJDs7u7Ky8ubNm99+++2UKVMmTJgwc+bM+fPnnzhxAolElpeX+/r6Kioqzpkz57vvvps/f76enl5sbOxzcwcXAYERCbxeQZaUlFhbW8+ZM2fKlCkzZ86cMWPGxIkTZ86cqaGhkZCQIN248vJyfX39L774YtKkSRMmTJg4ceKsWbP+/PPPWbNmiXdZ9fT0vvrqq0mTJk2fPn3GjBmTJ0/+5JNPdu3aVVhYODx9CUGqq6tPmDDhhx9+QCKRCATCzMxs1qxZkydP/vrrrxcsWDBhwoRZs2YpKSnl5uZevXpVTuyYMWPG7t27EQiEr6/vd999N23atP/85z9z586dPXv29OnTFRUVZfyLM9xCcOUDJ/B6BRkQEPDnn39OnTpVVVU1NDQ0Li7u5MmT33777bRp00xNTUtLS6XQv3///pIlSyZMmLBq1SpPT8/ExERLS8vvv//+o48+ggV59+7dH374YcKECdu3b4+Ojk5LSzM2Nv7kk08+/vhjOzs7ib4oEomUIsjS0tKvvvpq8uTJGhoaGUPHzZs3Z86cOXfu3Nu3b5eWloaEhPz666/Tpk3btm1bWlpafn5+enr6zp07J02atGzZsujo6MzMTC8vrx9//PHbb7+1t7eXUjQQBAi8iMBrFGRJScmJEycmT548f/58Dw+P6urqmpqa/Px8HR0dOTk5BQWFqKioioqKR48e3f/3kZeXh0QiDQ0N/2/ouHnzJgKBQCKRZWVlu3fvnjlzJixIHR2d6dOn//LLLzExMdDosbS0dPPmzVOmTFm5cuXwQZ10Qc6cOXPKlCl6enoQLAQCkZGRkZWVBQl7+BgyKSlpw4YNEydOXL16NbQMU15enpycnJmZKf1vzYsqA1wHBF6jIDMyMnbt2iUnJ6eiopKYmAixrq2tNTExmTFjxm+//ebt7Z2cnKympvaffx/u7u5/y09FRWXChAlr16598OABXE/W1tZffvklLMilS5dOmDBh586d4suSRkZGM2bMmDVrVlZWFnwj5JEiyPLy8jVr1kyYMGHGjBm//vqrjo6OjY1NVFQUnMJwQRYWFpqbm8vJyU2ZMuXHH39UV1e3tLQMCwsTn8qCbwceQEAWAq9RkAkJCVu3bpWTk9PS0hIXjK2t7VdffTVnzhx3d/f09PQjR44s/ffh7++PRCKVlZXl5OS2bt36+PFjuCTis6xlZWW///67nJzcrl27cnJy4DhWVlaffvrphAkTMjIy4IuQR4oga2trHz9+rK6uPmPGjI8++mjq1KkzZsz4/PPPVVVVS0pKnjvLWltbm5aWdujQodmzZ0+YMGHKlCnTp0//8ssvtbS00tLSJLIGp4CALAReoyCzs7P37t07XFRmZmaffPLJzz//7OXlVVNTU1ZWVvjvA+qgqqurT5o0afXq1eKTlubm5p9//jnUQtbW1q5YseKjjz7avn27eGN49OjR6UNHZmamBAIpgkQikTU1NSUlJdnZ2f7+/hYWFoqKinJycrNnz4YGhMNbSOiWsrKyjIyMwMBACwuLVatWffzxx9OnT9fR0ZHIGpwCArIQeI2CrKioMDU1nTJlyoIFC27dugVZk5qaqqamNmHCBGVl5fj4eCkmQmPImTNnenh4QOv4ubm5W7dunTZtGtxlhcaQs2bNCg8Ph8aQWVlZy5cvnzRp0saNGwsKCiTSf5Ega2trU1JSrl27ZmVlVVxcXF1dXVFRkZiY+MUXX3z88cd79+59bgtZWFjo4eFx+fLlsLCw6urqysrKyMjI9evXQyNk0HGVgA9OZSHwGgWJRCIDAwOXL18+ceLE5cuXX7p06fbt29ra2v/3f//3ySef2NnZSV/Ej4mJgYaI33zzzdmzZ11dXVVUVD799FNo9QF6U+f+/ftz5syZMGHC+vXrb9265ePjo6ioCCn27t27kIzFKUgRZEZGxueffz5jxoytW7fGx8c/fvzYwMDgo48++nuVxcHBAYlEpqenr1ixYuLEib/88suVK1diY2MfPny4ZMmSGTNm/PXXX97e3k+ePLG1tf3iiy+mTp2qpaVVW1srnjXwAwKyEHi9gqyurnZ3d//1118nTpw4derUadOmTZo0aerUqQcPHhTvZD7X0JqaGicnp7lz50LDs2nTpn355ZcbNmz47LPP4BaypqbGxsbms88+mzhx4rShY+LEiXJycocPHy4qKhqe7IsECb1qY2RkJCcnBy1pTp8+ffLkyVOmTNm8eTPU0paVldnZ2cnJyUEq1dTUrKiocHNz++yzzz766KNp06ZNnz596tSpkydPXrt2rfi4d7gZ4Aog8CICYybIyMhIAwODCxcuSDyL1dXV4eHhBw8eXDN0aGlpeXl5lZSUyNKAVFdX//3ej5aW1sqVK3fs2OHn5xcUFGRmZmZgYADPmlRVVSUlJRkaGq5Zs2bZsmVaWlp+fn6lpaXPTf/evXvHjx83MDCAGmdXV1cDAwNLS0uITmVlZXR09K5du5YtW7ZixQotLS1PT8+Kigo4qdLSUm9vb21t7c2bN1tYWEArMWFhYSYmJvLy8itXrlRRUbl48WJ+fj58y4u4g+uAwHMJjJkga2pqqqqqqqurhz+LtbW1VVVVlUMHAoGQ3lOVsLKmpgaBQFRWVkI31tTUVFdXV1VViecie/qQkXBXFkqquroazrS2thbKDs4RDoI8kD0IBAJORCJ38dQk7gWngMCIBMZMkCPmBCIAAoDAiASAIEdEBCIAAm+OABDkm2MNcgIERiQABDkiIhABEHhzBIAg3xxrkBMgMCIBIMgREYEIgMCbIwAE+eZYg5wAgREJAEGOiAhEAATeHAEgyDfHGuQECIxIAAhyREQgAiDw5ggAQb451iAnQGBEAkCQIyICEQCBN0dgbASJQqHQ4AAEAIF/E0ChUHV1dS+l5tEKsq6urrm5ubOzk06nczgcLjgAAUBgiACbze7p6eno6ECj0bJrclSCRKPRWCyWyWSCKgAEAIHnEuBwOFQqtampSUZNvrog6+rq2tvbWSzWc+0AFwEBQAAiwOFwenp6ZGwnX12QjY2NFAoFQAcEAIERCbDZbDweL0sj+eqCbG1tBc3jiDUBIgACEAE6nS7LBM8rChKFQuHxeMAaEAAEZCTAZDLr6+tHbCRfUZBoNBoIUsaaANEAAS6Xy2QyGxsb3wpBcjgcBoNBIpEIBAIOh8Pj8Z2dnTQaDSyTgCf1wyHAYrGam5vHX5BsNrurq6usrCw6OtrX19fd3d3T0zMoKCgnJ6ejo4PBYHw4VQJK+iETeCsEyWazOzo6EhISPDw8fH19Y2JikpOTnzx5Ehoa6uHhERQUVFNTQ6fTP+R6AmX/QAi8FYLE4/Hx8fFeXl4pKSkEAgFGT6fTEQhEUFDQnTt3/t66+KVeLYBWWru6ushkMoPBeB39Xg6HQyaTYWuBBxAYPYHxFySTyczNzb19+3Z+fv5zm8GGhobAwMDQ0FAMBiNjgdlsdltbW1FRUVJSUkZGRnV1dU9Pz5hrkk6nJycny2gSiAYIyEJg/AXZ2toaHh4eGxsr3jaKm85isXJycm7evFlUVCTjkmZ7e3t4ePjfW2hVVlbm5eUFBwdXV1fDA1E2mz38lVo2m81gMNhsNpw1lBd0HbooEYdMJru7u3O5XBaL9VKtN5wF8AACEgTGX5CVlZV+fn4FBQUSlomfYjCY4ODgJ0+edHd3i19/kT8zM/PvnTy6urqgCFVVVaWlpVQqlcvldnd3NzY2VlZWNjc3k8lkqNkkk8lNTU01NTX19fVEIhG62NDQgMPhoFeZuFwuiURqaGiorq5ubGyEzCCTya6urkQisa6urqqqqqOjQ1zPL7INXAcEpBAYf0EWFBT4+vpWVlZKsbK7uzsqKiomJgaHw0mJBgeVlZUlJCSgUKju7m7xAWRPT096enpYWNijR48iIiIyMzMhlRYUFERFRT158iQqKio6OppGo3G53NDQ0KioqLCwsPT0dAaDkZiYGBERER8fHxERkZiYSKPRyGTytWvXMjIyoItBQUFEIhG2AXgAgVcgMP6CzM/P9/HxQSAQUqzv6uqKioqKjIzs6OiQEg0OIpFIycnJcXFxWVlZ5eXlbW1tUH+1rKwsLi4Oh8MxmUwCgeDn59fS0sJms4uKiohEIpPJ7OrqunnzZnt7O4fDCQ0NTU1NhVrLpqYmb29vCoXC4XA6OztjYmKwWCyZTHZxcamrq+NyuRQKJTo6uqioCLYBeACBVyAw/oKsqKiAuqxSJl3a2tpCQkKSkpJIJJKMhaRSqS0tLXl5eWFhYTExMSgUislkxsbGJicn19TUoIaOkJCQyspKJpMJdU1RKFRpaam7uzsKhYIE2dDQwOVyORxORkbGkydPJLKGx5BcLpdKpaalpaWmpkrEAaeAwEsRGH9BNjc3BwUFxcXFvUhsbDa7oKDAx8enqKhIxrkTCoUCT9tQqdTc3NyHDx92dXVFRkbev38/MTEx5dnR0tJCJpMjIyOjo6OTk5Nzc3M9PDyGCzIrKyslJQUmy2Qy2Ww2ECQMBHjGisD4C7KnpycjI+POnTuFhYXQiE68bEwmE4PBhIaGhoeHt7e3iwdJ8ZeWliIQCGjOhsFgFBYWPnjwoKurC9JVd3c3h8Oh0WgtLS0MBqO+vt7X1xePx3M4nO7ubk9PTwlBcrncqqqq4OBg6E8GnU6vqanp6ekBgpRSBSDo1QiMvyC5XG57e3tMTExAQEBeXl5HRweFQmEwGDQaraurq7a2NiwszMnJKTk5WfZV+JKSkgcPHuTl5dXW1paVlYWHh5eUlNBoNAwGExkZWVRUhEKhCgoKwsPDOzs7cThcaGhoYWEhCoXKzc2Fu6wRERFQl5XL5dJoNGh2B+rWhoWF9fT0UCgUT09PiDuNRsvIyEhPT3+1agB3AQIQgbdCkGw2u7GxMTo6+tatW6GhoZmZmUVFRQUFBQ8fPvTx8fEdOoKCgiorK6H5zxErj8lkVlVVPXjwIDw8HJprgdteFAqVmJgYGxsbExNTW1sL9YErKyuhWdzi4uL09HRoUqewsFB8DolIJCYkJMTExDx48ACFQnG5XPEXAxgMRm1tbXV19Yi2gQiAgBQCb4UgIftwOFxOTk5ERISfn9/t27d9fHwCAwMTEhLq6+vRaHR4ePhLaVJKmUEQIPDWEniLBAkxolAoDQ0NVVVVdXV10PoEdL2pqSk8PDwkJKSpqemtpQkMAwRGSeCtE6SU8jQ2NiYlJQFBSkEEgt51Au+SIKG3RsHrae/6Mwfsl0LgHROklJKAIEDgPSDAYrFk+TrrK35TB4VCYbHY9wATKAIg8GYIMBgM6PcM0r/i8YqCRCKRGAwG/t3TmykSyAUQeEcJQD95ly5FKPTVBVlfX9/Z2SnlPdV3lB0wGxAYcwJMJrOjo+P1ChKJRDY3N0O/kxjzAoAEAYH3hgCLxSISibL0V5FI5Ku3kEgksq6urqWlhUQiMZlM0FS+Nw8QKMhYEYC+/0QgEGRU42gFCWmysbERi8USicTu7m4SOAABQGCIQHd3N5FIxGAwsuwgAPdmR9VCwqlAHrBt67+36wRnHzoBCYHIcjqWgpQlPxAHEAAEpBAAgpQCBwQBAm+aABDkmyYO8gMEpBAAgpQCBwQBAm+aABDkmyYO8gMEpBAAgpQCBwQBAm+aABDkmyYO8gMEpBAAgpQCBwQBAm+aABDkmyYO8gMEpBAAgpQCBwQBAm+aABDkmyYO8gMEpBAAgpQCBwQBAm+aABDkmyYO8gMEpBAAgpQCBwQBAm+aABDkmyYO8gMEpBAYe0GiUKj6+vrGhgbgAIEPk4Ds3wcYrswxE4jXYxwAACAASURBVGQ9Gt3R2koiEGgkEoNMZlIowAECHyYBGolE7uzEtbc3NjQMl5z0K2MgSBQK1YbB0Lq7e+l0Pocj4vGAAwQ+cAICLrePwWCQybj29pdqMEcryHo0Gt/RwaHRhFzuB14HoPiAgAQBIY/Xy2CQZP7k3Gg/clVXV9fR2trHYAhBqwgIvK8EqDQhgSDE4yWcSOYWaIDNJhGJqLo66Z1VKHRULWRLUxO7p0firwI4BQTeJwLCO3cFunqCndoSTpidI5J5gPaUxcK1t79eQdaj0d14POipvk8PHyjLcAICY1P+9Fl8uckSTujrJ2Kzh8d/7hUhl8ul0err60fU5Ku3kJjmZg6V+tzswUVA4L0hIMzMFtz0Eri6SzhRaZnsLaSIx+Oz2di2ttclyDokEtvWJpC5yX5vqgcU5L0nIETWCWMfCMMj/nHBoYKAe4I7dyWcMCjkf3HCI0Q4nHQyAi6X2t39ugSJRqG68HjpFoBQQOCdIyDEYAS6evxFS/kLFr+UE5w4Kb2wQh6PS6O9LkHWo9EkAkG6BVDoUyaTgMGU5eeX5eeT//1XhEogEDEY3nj0e8lYbHt9vSz2gzgfFAFhegZ/7jyJ4aJMp198MyKoPiZznAXZUlfn5Oiooqy8asWKVStWaKqru1+/jqmrg0wPvnPH/sKFhurqEUsy+gh5GRmdbW3wFJTL1auX7exGnyxI4T0jIMzN5+vo8hWUXtptURkRRf/4ChKDQlmcPr1BXv6CldWDiIjIkJCL589vUVKyOH0ag0KJeDxHW1tdHZ3ygoIRSzL6CBvk5WPDwwdYLCipo4cO6e/fP/pkQQrvG4FukhBRJSwtfWlXVj4iivEUJLen566Pz9YtW9yvX+9qbxdwOE+ZzK72dk9X140KCvfv3RsuyD46vaGmJictrbyggN7VJV68XhqtrrIyOzW1sqiIQ6HAQS11dVQCgUOhFOXkFGZn9xAIw+eZuD09KARi1qefOtraVpWUsEgkEY8HCVLI49WWl2cmJ6MqK+E0RTyekMulEYkZSUl56emUFwyV++j0joYGCh7f2daWl57eNtQB5rPZnW1tBZmZ+ZmZHY2N4mmKeDwakViWn5+bltZUW9tHp0Ohg136lpau9nYSFlucm4usqIAK2NXWVpSdjUIguP9e6cW3tBRkZZXl50sgksgLnI6GgPDmrcFVx23bZXTCxGRZshtPQWLQ6GOHDx/ctw96UmFz2+rr3ZydH8XEPGUyxVtIMg7n6uy8bcuWjQoK69as0d+/vzw/H2rQqktKTI2NNykoaGtoKK5ff0BPD1lRwWezqUTivj17vNzc9PfvV1ZSWv7XXzqamnVDQXB2Ih4PU1e3Z9euyZMnL164cLuKSmlurpDLhQRpfPy4mqrq6pUr165eHR0aCt3Vz2Q+ionZoaq6dtUqpY0bt2/bFhkSIp4g5G9vaDA1NraysFBTVdXR0ooIDuZRqYnx8apbtyqsX6+wfv32bduC79zppdFEPN4Ai1WYlXVAT2/dmjUbFRRUlJWvXb7c3tAg4vHa6uuvOjiYmZicPXNGSVFRfs2aKw4Od3189Pfv36SgIL92rf35861otIjHY5JI3h4eO1RVNdXVt2/bpqOpmZeeDrf5wy0EV16ZgMD8LP/T2TINHYfWJ4UP4mXJazwF+fdfdx1NzasODk+f9RIhi5+yWN0dHdShpgwWZB+dfvPGjd3a2p6urlnJyfGRkVoaGlbm5h2Njb00mrWFxZ5du8ICA0tyc+MiI9etWePs6Ag1TUsWL163Zk2gn19OWlpUaOjCBQtsrawkmg42mVyck/PpJ5+Ym5jkpKb24PHCoRby119+uWRnl5+RkZGYqKeru3jhQhIWK+BwGmtrl/7xh7GhYXZqanZq6i03t/Vr12Y8eSJBvL66eu2qVRvk5e/6+JTm5WFQqOyUFE119bNnzuSkpqY+fnzh3LltW7Y8jIkR8Xh1FRVHDx3ao6OTEB2dl54O6crVyamfwairrNy7e7fC+vWBfn65aWmOtrZrV6/eqa4e4OOTm5Z2yc5OccOG6Pv3RTxeYny88ubN58+dy8/ISIyL09XRcXJ07GprkzAMnI6egMDGlj/rc1iQgn0HBRra/KkzoSuCi46Cv1bxP5oKRxBmZcuS6XgKMv3JEy11dV9PTymGwoJEVlTo6erecnOjdXZCndvgO3c2b9yYkZTEZ7PRCER9dTU0GdvPYOzfu3f/nj2taHRnW9uSxYvNTEyg2Zo+Ot3s1Cn17ds7n/eMzv7Pf3w8PZ8ymZA9Rw8dWr5sGRRTyOWW5ed//PHHSQkJvTTaFQeHFcuWYZuaoL4rtqlJV1v7tLGxREHqq6s3KSiYmZiwyGQRj0fG4a46OqqpqBAwGGgVuLq0dP/evQaHD7PJ5LDAQAV5+biICMgACg5nZ2OjrqpalpdXV1m5S0vL6PhxGpEo4vGKc3K2KCmZGhtDM9I1paVqKirOly9zqVQ/L69NiooPY2IgRE21tRgUCmqBJWwDp6MkIHBx5c/+6n968w8Qut+E20xRfYPggD5/0sf/i1BTK0uO4ynI1EeP1FRUbrm5STEUFuSj2Nj1a9fu37Pn2uXLkDM1Np7344+Bfn7QWKsVjY6LjPS4ft3UyOinH39UU1FpRiIhQXrfvAkNC0U8nqerq4qyMiQJiXyHC3KPjg4ch9ndPW3atIjgYBaZrKKsvHjRItgShwsXtigpKcjLw5EhT311tZqKiu+tW9BpU23tof37TY2M4Gj0ri6Xq1eVlZQqCgsdbW1VlJWbkUgoVMDhxIaHa6qrx4aHQ4K0sbSEgqpKSnaoql6xt4cGwy11ddo7dzra2rJIpNK8PNWtW9evW2dnY/P4wQOJNSQ4X+AZPQGBlzf/86//p7fQcOGdu/xZn0FXRMROwbET4oIUEQb/mI7oxlOQpXl52hoaly9elLCyn8HoGZqGEZ/UCb17d/XKlbs0Na0tLCB3zszM8OjRnJSU7o6OS3Z2SoqK+3R1z54+7WhnJ79unZa6OixIfy8v9lAbJeLxbnt4qMosSPFZVk5PDyRIJom0Yd26v/78E7bEysLi9MmTttbWEgWpr65W37490M8Puo5GIPbp6tqfPw9H4/b03Pbw2KSgkJOaamNpqaWhQcJi4dDE+Hg1FRX/27efK0inS5egmOKC5FGpRdnZjra2u7W1Vy5fvnXz5rjISLjscMrAM3oCwrAI/lffvYQgmf/M3kvPejwFSevstD57VlNdHVlRIW5lfXW16cmTd318xCd1khMStm3Z4nvrFrapSdyxyeTq0tIN8vIXbWyqiovbGxq62ttPGBjo6ui8JkGyyeTd2trbt20TNwPb1DS8GywhyMbaWj1dXUMDA7iwVALhir296rZtGBTK09VVWUkJjUDAoTFhYdu3bYu5f192QYp4vKcsFhmHa6ypSXvyZO/u3bra2tUlJXCawDNWBISJSfxv5soqyE9my/hS63gKUsDlPoqJUdq40cTIqKn2nx42sbX1wrlzmzdtggZCcJcV29S0S0vL3NQU39ICMc1OSbnt4dFSV5eblrZ29eqYsLD+oeEflUDYsmmTeJdVxhby++++c7hwoZ/BgNKXWIeEW8h+BuOer+8Pc+fCf0dYJNJdH5/Y8HCJypYQJAmLdbhwYc3KlRXPllWrSkq0NDRMjY37GYzHsbGKGzb4e3lBibTU1R07cmT/3r0dDQ2yCzI+KsrbwwOatX7KYjldurRl06a89HQJw8Dp6AkIc/P43/8oqyB//V3G30aOpyChafr79+4pbtiwQV7eyMDAyMBgk4LCyuXLfW/dYg4tBsKCHGCxIoKDFTds2K2t7Xbt2vlz51YuX25w+HBTbW13R4eujs4GefmrDg6erq4G+vrzf/tNQ03tZVtIPV3dOd9/f+zw4bK8PHjZA645WJBCLrezre3gvn1/LllibWFx/coV/f37169bV5qXB0eGPBKCHGCzKwoLNTU01q1ebWdtfcnOTkdTU09XF1k+uF7c1d5+1cFh1fLlJwwMrtjba6qry69dGx4UNMBiyS7IxPj4LUpK+/fsueXqeuHcudUrV148f57Y2iphGDgdAwJ1KP4Pv8gqyDXr3w1BQprMSU29aGNzaP/+Q/v3X7SxyUxKonV2QsiexMXduX0bWo5jkkg5qan2588bHj16/MgR50uXqoqL++h0AYeDKCqysbTct2eP0bFjkSEhXu7u/l5eJCyW0d19yc4uLz0dXmTPSU295epKf5a+eMVgm5qu2Nvv09Utyc0VcLkhAQFB/v5whH4G46ShYdmQ6gQcTisafe3y5RMGBscOH75gZZWdkjJ8MrOzre22h0dhVhacSB+dXl1a6nL1quHRoycMDNyuXauvqoLWCQUcTkdjY/CdO2dOndI/cMDSzCzt8WNGd7eIxyO2tvp7eSVERUHp4Jqbb3t4pDx8CJ2SsVi/W7eePHjQS6MxSaSHMTHWZ88aGRgcP3LE38urvaGBL/NP8mA7gWdkAi0Y/k+/yihIwcYt74wgRTze3886BY/HNTfjmpspeDzcaRTxeGwymd7ZCS9F9DMYZBwO29SEa26mEonwkvcAi0XCYtsbGrDNzWwKhdHVRe/sHGCzBRwOBY/n9vTAb6hye3poROKLnlEakYhtaoJefGF0dTHEXgYScrld7e3wa+6Db+p0duJbWrBNTSQsFrZQvCIHWCwakQjfAgUNsNm0zk6osFQiUfy1IQGHwyaTO9vaOhobuzs64D8iAywWvbMTWjsZHCUymTQikf3sbST+UIJsMhkqI49K7e7ogBAxSSTx9MVtA/7REuju5v+8QFZB6h0Yf0GiUKjOf/90Y7QIZJg1BlkAAm+IAIfDX7iUP2EKpEmh1GUPwdlzMgqyl8F4Xb/2QEI/UJb5Oz9viCNQNSAwRgT4GzbCK41C3zsCh8v8mf+B9ClCVAv27INDBRcuyiJIIZfLJJNfoyDbMBho5hOIDRB4/wjwNynzJ0//p9f63+8H3xOA35X78Rf+p5/9r/30ui2LIPlsNl6G71y9+jd1GurrKc+bPnn/6gaU6AMkINi1hz/tE3gYKcUjDAkdUZBCHo9HpzfJ8CHzVxdkHRLZ0doKGskP8GH9EIosvHV78BMe384dwf36uwhRNSIQAYfTjcfXyfBp1lcXJBKJRKPRXTjci2Y1R7QSRAAE3l4CZLKoBSNqah7BtbSIRnpvTsjl0slkNAo14gBytF8uRyKR9UCTYzSL8PY+mqCAoyAg5HIZZHKjDF9kheQ6qhYSSgKNQuHa2nhDv8QFTxUgAAjABAbY7E48/o1utgNpsq6urrG+HtvWBu2BNcBiAQcIfLAEnjKZrJ6eLjy+qaEBJVtPFe7NjkELCadVV1eHQqHQaHQ9cIDAh00AjULJuLsOLB/IM5aClEganAICgMDLEgCCfFliID4g8BoJAEG+RrggaUDgZQkAQb4sMRAfEHiNBIAgXyNckDQg8LIEgCBflhiIDwi8RgJAkK8RLkgaEHhZAkCQL0sMxAcEXiMBIMjXCBckDQi8LIExEyQKhWrFYLoJBGpXF41EAg4Q+DAJUDo7O3G45qaml5UiFH8MBNlQX9+Jw/U92zYDfrMWeACBD5kAj0braG19WVmOVpDNjY2MZ1/y/5Dpg7IDAsMJCLhcGX+XDOt2VIJsaWpiPftg4XBrwBVA4H0gwGaLGIznONm+8Cbgcns6O2X5VsBou6yNDQ20oU/9vg/QR/ELVFD895uAMCxccOiIQFdPwolqakb8lA5ERsDhELFYuA2U7nn1FrKjtXUAfDYbKPl9JyAwOTO4eevk6RJO6O0jkvn572My69Fo6VIcVQvZ2NBABc3j+/4svt9Nn4ylEwbf5xsY8g8elnDC1HQZN70S8XgCDqcTj3+Ngmxrael7tpOUjAUD0QCBd4MAmSzCE0Q4/Es4AkFEpUopnZDL5dJor1GQHa2tAtkGtVKsBEGAwFtHgEoV6O4b3Cx5ygyJPqq009lfCW3tpZflKYsly4fnXnEMiW1rk549FMpnszkUCpVI7MHjmd3d/QwGLOOnTCanp+e5+9jIkvJo4gzuJPVG+tu9dDoZi32FTY576XQOhQJvNzSawoJ7X4qAMC2dP3eelM8ivzDo86+lZ/SUxWp4fR9KlkWQvTRaVUnJVQcHLQ2NLZs2nTQ0TIiKImAw0J5NxTk57tevVxYVSS/GmIRSiUR6Zye8SdaDiIgTx47Bp2OSxXMTSXn06K8//3R+tj/5c+M892JCVNQNJ6fGZxvdPjcOuPg6CAiTUwR/rhjcz/xl3dx50u0ZYLMxzc0j9lpfVwvZR6dH37+/euXKFX/9ZW5q6mhrq6Opuej3320sLaE9RiODg9VVVeOf7YsovTCjDN23d++pEyfgD1Vesbf/6ccf38BebmgEwtHWNi4y8mXtd7l6VWfnzqLs7Je9EcQfLQEKRdjUJKxECEvKhCWlsrqaWmFDo/Ssx1OQQi43Ny1NefPm40eO4JqbIUOZ3d2erq5LFi/2dHUdYLEkBAnti9jZ2kpsbaV1dor31ng0GgWPJ7a2dra20ru64A+lQ9sqMkmkzra2zrY26vN2hhz8hHtHx9bNm3drabXV17OGdm6GBNnPYHR3dOCam7va2sR3rRRyuSwSqbu9nYDBkHE4cUugggi53F4ajYzFQncJuVwelUrCYjk9PVCEfgajh0Dg9vT0MxhUIpEztIMlp6eHSiRye3rIOByxtZWCx8NbRIp4vAEWi9HVBRWERSJdu3xZXJCDcDo7CRgMAYOhEYlPWSwRj9dHp1PweHgn2T46nYzDsZ5tGslnsyl4PJtMFnA4Ag4HokTAYEhYbB+d/gZ6B9Kfzrc8VBgaLjC3FJicltEJC0bu6I2nILlUqtu1axpqavkZGeLoyVis9dmztlZWnW1t4oLkUan5GRnmJiZbN29WUlQ0MzFBFBVBw0s2mRwZGmqgr79FSUlJUdHKwqKhpgbSpK2Vlfv16y5XruxQVVXauNHw6NGm2lpYrlC+TBJp/549X3311byfftq+bVvo3bt8NvuKvf0Pc+cWZWfv1tJa+scfCvLyKQ8fQsITcrnE1lanS5d0du7cpKCgv29fSW5uL50uXoqnTGZeerqOpia0zzm3pyc+MlJt27aI4GARjyfkcktycw2PHk15+BBRVHT65MmYsLA+BiP6/n2jY8dC7tw5eujQJgWFIwcPJickQI32UyazqqTE1spKRVlZRVnZ/fp1U2NjbQ0NqIXkUamFWVlnT59WkJdfv27d6ZMny/Pz+5lMRFHR4QMHUh89gpr6nLQ0XW3t2+7uPXi8iMfraGw8sHdveFAQi0xuRaOdHB23bdmisH699s6dSfHxsIzFywX8MAGBueXg/lZyk/9xkz6GN58bvDJlBrz1FRRBGPnPBthwCsM94ynIjsZGw6NHjY4dg3btHm6ciMeDBSnkch/HxiqsX6+loeF/+/YNJ6eVK1bs3bULWV4u5HJjw8PXrFp17PDh0Hv3nBwd5//2m7mJCdTp1dTQWPrHH7s0NQP9/R3t7H6eN0//wAESFiueHZtCSYyPX/rHH0qKipGhoSgEQsDhXLG3/79Zs1S3br3l7h7k57dh3br/fvUVumpwyxRGd7fh0aNLFy/2vnkzMjT0pKHhLz//nProkXiaIh6vtrx8+bJl0KboxNZWM1PTzz/7zOTECWibZO+bN+XXrq0tL89JTd2+bZuflxebQrnh5PTF559rqqu7X7vme+vWNmVlBXn5jMREEY9XU1qqq6OzSUHhlpvbLTe3/Xv3/vbLL9u3bSvKzhZyuUkJCRs3bFDfvt3Py8v12rV1a9bs0tREFBe31NUpb9581cGBSiCIeLzrV678MHfukQMH2urrRTxefFTUooULs5KSnjKZu7S0Vixb5ubsHBserqWuriAvD3dbJMoFTiECAusLgy8DwIJcupy/dMXgLCt0Zasq/7/fiWtSmJ45IrrxFGR1SckeHZ2L589LsRIWJJNEMjE2PnXiREtdHRQ/5eHDtatWhdy500enl+bmxkdFdbW3CzicARbr/LlzO1RVUZWVf6tCU0NDXVUVev5EPN6d27d/nDsXTkQ8aw01tYN6evD241fs7adOnQo/lBQ8/puvv/Zyc+Oz2YWZmZ/Nnp2SkADdTu/sNDMx0dLQkBhw/t11NDUyOnLwoIDDqa+q0tTQWPHXXxs3bOghENobGkyNjY8cPCji8SQEuXDBgqjQUCjlx7GxmzduvOXmNsBme964oaSomBQfDwVh0Gg9XV1lJaWi7GxGd7f56dMH9+2rLSuDQgsyM9evXXvTxYVDoZw6ceLIwYMN1dVPmcwDenqbN25UXL++JDdXyOWePXNGV1u7GYlkk8nLly274eREwmL/vs7p6YmPinozk8yQwe/ivwKna/zZX8KCHNxB2S9gcC1kSJAiAkFw7IR4mymsrhmxmOMpyJrS0gN6eo52dlLGKrAg66urt2/b5mBri6qshFxBZqbC+vXXLl+md3b2M5ndHR3NSGRFQUFOaqqeru6Gdeugp1NTQ+P8uXNwk5gQE/PN1183PW9mcrggxSd1+hmMlcuXOzs69tHpVx0cfp8/H7bk70lg+/Pnf/rhB/q/d8LkUCj3/PxW/PUXqaMjLz1965Ytd319lRQVs1NSSvPy1FRUbrq4DBek6tat8MRpWX7+bm3ty/b23e3tJkZGB/X0sE1NcKVevnhxh6pqUXZ2bXm5mqrqVQcHzrOX+HtptONHjhw+cKChujomLGyHqmpmUlJ9VZWSouItN7fNGzfGRUQwu7u3bt581d6+B4/n9vTs0tLapKDg7+VVW16Oa27mUalS6gW24UP2CG7dHtyh9VkLKX1Lc77cZFFr64i4xlOQzXV1h/bvNzp2DJpEgW0d3Jers5NKJIpP6pTk5ipu2PDfr76a/9tv4s7LzY2Cx5fk5Z08fnz1ypW/L1iwcvnyX3/+efWKFbAgrzo4QEMmEY83GkEqKSo6Ozr20mhWFhYfT5smbsb8335T2riR1NEBl0LE4w22pVlZq1esiA0P9/X0VNm6tbGmxsjA4IaT08Po6PXr1hUPTZBKtJDPFSS+pcXQwMD4+HFxzV+7fPnvtaKi7OzyggI1VVV/Ly/x3M1MTPbv3YusqGipq9u8aVOAj0/wnTv6+/dXFhUd0NO7fuXKo5iYFX/99TAmBpp2qigs1N+/f9Hvvy9ftkxDTS3m/n0W+MWc1NceBSH3+V99+xKClOGl1vEUJIdCuergsHPHjorCQvHOXg+BcPPGDW8PDwoOB7eQVSUlW5SUrtjbdzQ2EodmWbFNTa1oNAWHI+Nwerq6WzdvjgkLa6uv76PTnS9d2rp582sSZB+dfsXe/vcFC2BLiBgMrqmJ0NIirgfI34REamtonDAwsDxz5qKNDRmHc3J03Lxx40UbG/Xt26lEoowtZA8eb3H69FF9fWhgDKndztoaGkPWlJWpbtvm6uwMv0ExwGIdO3z4oJ5eQ3U1j0Y7fOCA5Zkzu7W0rl261NXW5n3zpoG+/tFDh3Q0NdEIBPQWZS+NJuBw2hsbUx892rtr15dffJGbljZ89nh4GT/YK8KEh/yv58gqyCkzZHmpdTwFKeLxUh89UlJUNDEyaqypYZHJXCqVjMPdv3dvg7y886VLbAoFFiSjq8tAX//4kSMoBGKAzRZwOA3V1YlxcfiWlmYkUkFefrAZJBAEHA6NSDx14oTi+vUvK0gtDY1dWlo9eDz08xSJdch+BgNqIflsdnZKyn+/+io/I6OfwRjc2a+rqzArqyDzOUN2Ch4/OFs7Z47mjh156el8NvtJXNzcOXPUh3qY0KMsSwvZz2R6ubsrKynFhoX10mh8NrsJidz3bAzJ7O42NjQ8fPAgsrx8gMXqZzBqyspUlJWv2NtDmnd1dtZQU/vu229D797to9OLcnI2KSrO++kn+/Pnu9rbRTweBYd78uBBS13dAIvFZ7PbGxrm/fijl5sb3Af+YFUnpeDC/EL+9z/JKsgff5Hld1jjLEgOhRLo57d29WotDQ1fT8+wwEAbS0v5tWsP7d9fMzQ/AQtSxOPdv3dPaePGc+bmmUlJ+RkZZ06d2rJpU156+t8fQdA/cGDnjh0PIiLy0tNvurj8sWjR8mXLXlaQNpaWfy5Zcs/XF1leDs2ySowhIUGKeDw2mayloaEgL/8kLq4oJ+e2h8fCBQugGRqJ+uOz2TlpaTNnzFi/bl3P0DxnVUnJqhUr/li0CJo7lbGFHJxlLSs7cvDgbm3tmLCwrORk67Nn/1i0SHPHDmjZIzIkZMumTRanT6cnJj558GC3trb8mjVZycmQPeUFBatXrZo7Z05uWpqIx+NRqdtVVKZNmxYWGAhNYjXW1Chu2KC/f3/a48c5qalW5ua/z59fmpcHfjonUaH/OkVU8ef+LKsg1254BwQp4vE4FMrjBw90dXSWLF68eNGidatXW1lY1A+tLoh4vPQnTyzPnIEeoz46PT4qSktD449Fi/5YvHiLklJseDj0CmhBZqaujs7ihQsXLVy4d/du89OnTYyMoKlUKwuL4Dt34JWVvPR0NRUV8akRGHF3R8c+XV3oLbanLFaQv7/4xOlTJvOUoWFIQADUwcOgUMf09Zf+8cfCBQtWr1x53tKS/O+lFDjZtvp6A339C+fOQVcIGIz9hQuGBgZEDAa6giguNjc1TYiK4lGp4UFBZiYmsHloBOKClVWgvz8Us7yg4PDBg4sXLVqyePGZU6ecL126am+PLC+HXgB4/OCBjqbmIJxFi3Q0NVMfPYJnjHtptLNnzpw0NGxGIqGkbrm56ero1A1NRENXHsbEqCgrL/r998ULF65ft8731i2JsT0UDfz7PwKtrfyffpNVkIqb3w1BQsXrZzCwjY3Q/Pv/Cvy8IXUvjdZSV9eKRsPvuEHxeVRqY21tfXU199mrMNLTeVFod0eHi5tJrgAAIABJREFUjA+igMMhYDA1ZWXwFO6L0hzD62wyuRmJ7GhsFH9tCE6/j05vRaEG4Uj9mQ8cX8Lz91wrGoForKmhdXaKj+olooHTfwjg8fx582UUpGD3XhkF2SLDp+he/V1WMHUOHt/3lgCHw1+4BF76l77sIThjIYsgn7JYTa/v1x5tGAz0RuV7WyXPa8NBYT8cAvx1CvDSv/CGm9DxMn/mf6A2U1hYJNi1Bw4V2NnLIsg+BkOWPZVfsYUc/N7c6DqQH07VgpK+iwT4Slvhd+UEy1byf1v4PwVu3c7/Zg7cfgpc3UcUpIDLpXZ3j/jbKyQS+YqCRKNQnTgc6LW+i48asFkWAgKtXfxpM+FhpBSPMDBoREE+ZbHaMJjXKEgkEtna0sL7988gZCkniAMIvBMEhNdc+H8s4//0q3Qn+G2hsKBQeokGF7RJpNf71TkkEolGoQhYLBhJSq8MEPquEsAThFHRwsDgEVxsnPTmUcjj8ej0Vhm+FQC1n6/YZYVubqiv7yYQ+plM0Hd9Vx87MHf1OglAH5t7qR0+RiVIJBJZj0bj29vZPT0DbLbwdZYNPPGAwDtEQMjl9jOZdDJZxqEjPLwcrSCRSCSqrg7T1EQiEJgUCpdG62Uw+oADBD5UAr0MBpdGo5NIBCxWxnEjrMZXn2UVTwL2o1EoTHNzR2srtq0NOEDgwyTQ3tra0tQky5IjLBxxzxi0kOLJAT8gAAiMhgAQ5GjogXsBgTEmAAQ5xkBBcoDAaAgAQY6GHrgXEBhjAkCQYwwUJAcIjIYAEORo6IF7AYExJgAEOcZAQXKAwGgIAEGOhh64FxAYYwJjJkg0Gt3S1NTe2opra8O3twMHCHyYBLBtbe0YTFNDAwqFegWxjoEg0Wh0OwYDvTrXy2BAnxvks9nAAQIfIIGnLFYvnU7r7u7C42X5iI6EaEcryIaGhk4cjgd2OAMv1gMC/yYg5HKZFAqure2lmspRCbKhvp70bLvCd+hNfGAqIPDGCDxlsQhYbF1dnURL+KLTVxdkPRrdicOBHyi/saoFGY0PgcIioX+A8LbPv5y3r6ihUfpPk2Fr+5nMtpaWFylQ4vorCrKurq4dg+llMOBcgQcQeC8JCM/bCb6dK/jPF/9ys78U3g8XybDHDrSHL5NCqa+vl9Dec09fUZD1aHT30Pfz38s6AIUCBGACwhvugk3K/LUbJJwwJlZGQQ5uoMThYNvanqtAiYuvKMjmpibWsx0LYdOBBxB4HwgwGKL2DlELRtTSImppEaakCgODBQH3JJwwL1/YPBhh0GFG2B9ycCNGEklCe889fUVBtmMwYLeW9+Hh+/fEICiRiEwWevsJDI0F+kdfwh05JoyIkk6vj8mUZbr1FQWJbWuTnj0IBQTeSQLlFfwlf/EnTpPyIdbnBgmWLpde3qcsVuPr20pAFkEOsFgYFCr03j0HW1tba2u3a9dKcnN7aTTI7vrq6kexsRg0WnoxXkdoaV5eoJ8f+FLe62D7rqcpTEvnL1jM/+Q/L+2++lZ62QfYbFneE3hdLWQfnZ6VknL8yJFtW7Zo79ypq6Ojoqy8W0sr0M+ve2gj0djwcL3du5Pi46UXY0xC79+7FxsWBm9CfMPJ6c8lS8AmUGPC9n1LpKl5cJHDzeOl3c1b0lGM84atyIqKo4cOqamoBPn7V5WU1FdVZSYlnT55ctuWLbFhYQMslviGrXBJOD09z92MDdpK9UVrnn10Oo9KldLiaaipHdTTgzdyE99BmdbZCecu7hFyuXBjLn5dwi/gcF5kcD+T+aJdigdYLB6VCv+BgE7BHuMSbMfxVJiRObT26Cu8LZtDVI1o7XgKspdO9711S1lJKSI4uFdsu4Gm2tpTJ044OTj04PESgkQjEN4eHqdPnrQ0Mwvy9/9781OohP0MRm5amsvVqyZGRlYWFmGBgRQ8HgoKCQhISkgIvnPH0szMxMjo5o0bHY2N/H8vDdG7uuwvXPh53ryFCxacOXUq5eFDPpsNCbI8P9/Oxsbw6NFrly/DGxIPvu7U3R0XEWFrbX3m1ClXZ+fn7mcu4vH6mUxUZaX7tWunT560s7GJj4pikcmDE9xsNgGDiQwJOWduftLQ0PnSpcKsLEi0NWVld7y9H0REODk63nByQlVWsimU/IyMv/cnNzEyumhjk52SIrE35ojVDCK8DgKCiw6C+Yv53/8ooxPGxo1oxngKsrOtzcTY+MDevYSWFnFDB9js6pKS0rw8FokkLkg0AmF26tTe3bvPnjljdPz4DlXVG05OxNbBqeTUR4/26OgcPnjQ+uxZE2PjrZs3+3t5Qc2apoaG4oYNB/X0rMzNjx85snTxYisLCyqRKJ4ji0x2cnT86ccfFy5YYGVunv7kCSTIr//738MHDpiZmJibmupoaipu2NBaXw9tV+x369a2LVvMTEzMTEyOHDyovXNneUGBeJoiHm+Aza4pKzuqr3/k4EEbS8sTBga7NDX9vbz6GQx8S4uTo6OutvbZM2cszcx0dXT0DxyoKi4W8XjR9+8vXrRIQ03t+JEj169cqS0vT3/y5Njhw0bHj1tZWOzT1d23Z09GUpJEXuD0zRMQnLPmz/rsf5M3i/8UfPcD/6Op0BXBkr/4n30F737Fl5ssfJw4opHjKUg0ArF/z55zZmZSumGwIDk9PY62tpo7dsRFRJCw2PaGhju3b6tu3ZoYH89ns7NTUm44OZXk5lKJRFxzs+HRo/t0daHtuzU1NFatWBEbHk7CYjsaG08bGy9euLBtSFfidFhk8rYtW3S1tbs7OvqGmusr9vYff/yx540b+JYWEhabl54+69NPQwICBBxOVUnJsqVLvdzdCRhMd0dHUVaW+vbtRw4eFE9QxOORcbiL589vUVKqKCykd3U1I5EeLi4nDQ07GhuJra13fXxCAgK629t7CIS4yEj17dv9bg0OMKLv31/4+++WZmZ1FRUkLLa7o8PR1lZ7587SvDwakVhRWOjj6ZmfkSGRFzh98wQEjpf5//kCFqTA3lFocpo/fRZ0RRgZJdi6XXwmVlhSOqKR4ynI6pISXW1tO2trKVbCgsSg0RpqaqdOnKgoKGiuq2uuq8tKTl63Zo3btWvM7m4elUolEHoIhKba2sKsrIP79m3euLGuokLE42lqaJw+ebLz2QJMTFjYnO+/h7Qqke/wMeTnn3/+d28WitbHYCxZvNjZ0bGfwfB0df3phx+qioshS2rKyqwtLOb/+iscGboFXVW1ft2661euQKcCDqe7o6M4J4eCxw+wWPSuLgoeT8BgKgoLb3t4bFRQcHJ0hAS5ccOG2PBw6C4WiXTVwWHd6tW+np7NSCSLTGaSSKPcth1KGfw7SgICNw/+Z/+FBSl9B2W+3GRRU/OIOY6nIBuqqw/o6VmcPg3PWww3FxZkRWGh0saN8mvXHjl0CHJ6uroL5s93cnQk43B1FRUuTk4G+vr79+41PHp07erVa1evri0rgwR5dWg4CiWeEBPzzddfN9XWDs9ruCB/+vFHeJa1n8FQUlR0dnTspdGsz579/rvvYEv0DxzYunnz0j/+gMe0UOKIoqJff/75YXT08Lx68Pio0FATI6MDe/cePnBAV0dn1YoVsCCVlZQS4/4Zb/DZ7LL8fBMjo23KyjqamiZGRpEhId0dHcPTBFfeMAHh3UD+l9+8hCBleGttPAVJJRLPmZtrqKnVVVaKo+RSqY9iYuIiI2lEIizIktxcaCgYHBAQFhgIu+rSUjIWa25qunnTJhtLy0A/v8cPHpwwMFBSVHxNguyj0x1tbX+ZNw+2AfIkREdLzJciiovn//prfGSkeOmgGZ2c1FQFefmD+/Z5e3jEhocH+Pjs2bXruYIcnBliMJqRyISoKLdr1/bv3btJUTH4zh0pf8UksgOnr4mAMCaO//X3sgpy0sciDmdES8ZTkHw2Oyo0VHHDBvfr18X7YPkZGVoaGi5Xr7IpFFiQ+JYWHU3N85aWZBwOKhWbTK6rqOhsbe1oaFBSVLS1tiZgMFCDdvbMmY0bNrwmQT5lMkMCAr7/7jsMCgVZ0s9gVBUXV5WUSOBurKnZunnz5YsXoetPmUxkRUVIQEATEhng7b1y+fLSvDxo/Fyck7Nzx47nCpJFJiOKi9FVgzPmPCq1KDtbQ03N2NCQhMVKZAdO3zABYUYm/7sfZBXkf7972wUp4vFwzc3WFhaK69dftLF5GBOTm5YWevfunl27tDQ0ctPSRDweLMgBNtvfy0tLQ8PT1RVRXFxRWOhy9aqerm5eejoZix2cUzlwIDctrba8PCY8fIO8/Krly19WkMbHjy9buvTJgwckLFbI5YqvQ0LNFNRlFXC5zUjk+nXrDA0MSnJz0QhEQnT0/r17XZ2dJR4IWmfnzRs35NesCbt3D11VlfLo0eEDBw7t20dsbY0IDl61fHlIQAAagfh7GeOcuflff/75XEF2trVdtrc/euhQ2uPHdZWVQf7+GzdssLG0fNHSqIQN4PQ1Eqio5M+dJ6sgl62U5YeR49lCQp23xpqaG05OmurqCuvXK23cqKGmZmpsnJyQwOzuFvF4j2Nj/x4TpicOzhd3trV5ubvv37Nnh6rq1s2bd6iqXnVw6GhoGGCxHsXG7tbS2rJp0/Zt204cO3Zg7959e/Y01tSIeLwTx47d8fZmPJubSX30aP3ate0NDcPrqTArS3XrVtWtW6NDQ/lsto+np4qyMjyGfMpk6u/f7+/lNbiewWKlJybu27Nn765dKsrKaqqqhgYGBcNmPgUcTlt9vcOFC1uVlFS2bt22ZYuWhsb/t3enwVEWeB7H3XKdrVm3pvbFvvGFWqsWW7UvVmtrq7ZqardqnHW1dkhIJyQBuZQh4oUH4kG81pq9FHXU4RDLCUfCzdDdudMBcgAdcifdCQTQBAIIo2YlQBCRhuxCsCdDkub5dfpveMy3q6tsw/P/8+TT/a3O0QmFW7Zc6Ov7tL399ezsB+677xcPPPBgZuZzTz/9eFbW8svLi7zeh2bMqCwrGzjDvp4e/6ZND2Zm/uvPf/6LBx74l3vvfSwrq7a6+qpvpQ59d3iLucC+/ZG/nuA0yH/6mQuCHCDrOXIkWFGxac2a9atXBwoK9ofD0Ze/fNbZ2RQMRr+G8UV3946tWzfk5q5dubKitPTz7u6BYM5+9VVNZeW6VavWrlwZrKhora1t2LVr4FvwjcHgwY6O6Gdcx7u6KsvK+np6ht5b3548WVtd7d2wob2x8UJfX+eePcGKiugrey709TXs3Nn53atqz5861VRTk79pU25OTv7mzXuam6N/xeDNkb6+Y11dhVu25ObkbF67tra6euB7+pHTp7v378/fvDkvJ6fY621vbNzT3Dyw/FhXV/3OndGPzPu//vrU5583BoOb/v/1iytW+DZu3NvcPNLrfgb/1dw2FzjUHbnzbxwGeSHZ45ogzeH46SEELAROnIhM+FunQT7+pJMgL/20x759w/4M5OA3xvni8kOdnREHX1kiSARcKhD5x59Gv/V/MXfthaXLIz+58tqd/sOHLzzyaORPfzxQ7IWXsh0GafjzkJ8eOHDmux+kcqk4p41ADIHIz+77Q3L/lhz553sjP7r5SoFPPh35u7//wyvp3lx0zSAvnjlzuqdn8DPhSLfjfIbs2Lu357uvpsR4r/gjBFwqEJnkifzZX1z5qPXHP4n86M8jf3LTlf/9y7+KxnnphawffnTNIC99xaG7e6QIB789ziDb2tq6u7pG+nkol94HnDYCUYELs7OiL1690uEN3wX5xzcu+vKjUyPdOHviRIfpb50Lh8Mde/d+8dlnfCY50n3A210tcLGu/uJbb1/4919d4/rr9/u/+3nAkd7fSF/fIWe/ci4cDsf5DBkOh9vC4f379vUcP06TI90TvN3FAmfO9B873n/k6DWul38INsa7ef706d8fPdr+Pfzm8ktNtrXt37fvy2PHaDLGXcIfjVuBcydPHjl0aO+ePYM/S4x9O/5nyIG9bZc/dj188GDv55/zKeW4feTxjl8l8PWJEz3Hj3964ICTb3UMTnS0QQ7sam9r29fR8emBA91dXZ91dx87fJgrAuNT4Gh396HOzk/273f4VZzBNY7qc8irFg38b1tbW3t7+x6uCIxXgfb2dqf/0tVwCSXmGXK4zbwNAQRkAYKUyRhAwE6AIO1s2YyALECQMhkDCNgJEKSdLZsRkAUIUiZjAAE7AYK0s2UzArIAQcpkDCBgJ0CQdrZsRkAWIEiZjAEE7AQI0s6WzQjIAgQpkzGAgJ0AQdrZshkBWYAgZTIGELATIEg7WzYjIAsQpEzGAAJ2AgRpZ8tmBGQBgpTJGEDAToAg7WzZjIAsQJAyGQMI2AkQpJ0tmxGQBQhSJmMAATsBgrSzZTMCsgBBymQMIGAnQJB2tmxGQBYgSJmMAQTsBAjSzpbNCMgCBCmTMYCAnQBB2tmyGQFZgCBlMgYQsBMgSDtbNiMgCxCkTMYAAnYCBGlny2YEZAGClMkYQMBOgCDtbNmMgCxAkDIZAwjYCRCknS2bEZAFCFImYwABOwGCtLNlMwKyAEHKZAwgYCdAkHa2bEZAFiBImYwBBOwECNLOls0IyAIEKZMxgICdAEHa2bIZAVmAIGUyBhCwEyBIO1s2IyALEKRMxgACdgIEaWfLZgRkAYKUyRhAwE6AIO1s2YyALECQMhkDCNgJEKSdLZsRkAUIUiZjAAE7AYK0s2UzArIAQcpkDCBgJ0CQdrZsRkAWIEiZjAEE7AQI0s6WzQjIAgQpkzGAgJ0AQdrZshkBWYAgZTIGELATIEg7WzYjIAsQpEzGAAJ2AgRpZ8tmBGQBgpTJGEDAToAg7WzZjIAsQJAyGQMI2AkQpJ0tmxGQBQhSJmMAATsBgrSzZTMCsgBBymQMIGAnQJB2tmxGQBYgSJmMAQTsBAjSzpbNCMgCBCmTMYCAnQBB2tmyGQFZgCBlMgYQsBMgSDtbNiMgCxCkTMYAAnYCBGlny2YEZAGClMkYQMBOgCDtbNmMgCxAkDIZAwjYCRCknS2bEZAFCFImYwABOwGCtLNlMwKyAEHKZAwgYCdAkHa2bEZAFiBImYwBBOwECNLOls0IyAIEKZMxgICdAEHa2bIZAVmAIGUyBhCwEyBIO1s2IyALEKRMxgACdgIEaWfLZgRkAYKUyRhAwE6AIO1s2YyALECQMhkDCNgJEKSdLZsRkAUIUiZjAAE7AYK0s2UzArIAQcpkDCBgJ0CQdrZsRkAWIEiZjAEE7AQI0s6WzQjIAgQpkzGAgJ0AQdrZshkBWYAgZTIGELATIEg7WzYjIAsQpEzGAAJ2AgRpZ8tmBGQBgpTJGEDAToAg7WzZjIAsQJAyGQMI2AkQpJ0tmxGQBQhSJmMAATsBgrSzZTMCsgBBymQMIGAnQJB2tmxGQBYgSJmMAQTsBAjSzpbNCMgCBCmTMYCAnQBB2tmyGQFZgCBlMgYQsBMgSDtbNiMgCxCkTMYAAnYCBGlny2YEZAGClMkYQMBOgCDtbNmMgCxAkDIZAwjYCRCknS2bEZAFCFImYwABOwGCtLNlMwKyAEHKZAwgYCdAkHa2bEZAFiBImYwBBOwECNLOls0IyAIEKZMxgICdAEHa2bIZAVmAIGUyBhCwEyBIO1s2IyALEKRMxgACdgIEaWfLZgRkAYKUyRhAwE6AIO1s2YyALECQMhkDCNgJEKSdLZsRkAUIUiZjAAE7AYK0s2UzArIAQcpkDCBgJ0CQdrZsRkAWIEiZjAEE7AQI0s6WzQjIAgQpkzGAgJ0AQdrZshkBWYAgZTIGELATIEg7WzYjIAsQpEzGAAJ2AgRpZ8tmBGQBgpTJGEDAToAg7WzZjIAsQJAyGQMI2AkQpJ0tmxGQBQhSJmMAATsBgrSzZTMCsgBBymQMIGAnQJB2tmxGQBYgSJmMAQTsBAjSzpbNCMgCBCmTMYCAnQBB2tmyGQFZgCBlMgYQsBMgSDtbNiMgCxCkTMYAAnYCBGlny2YEZAGClMkYQMBOgCDtbNmMgCxAkDIZAwjYCRCknS2bEZAFCFImYwABOwGCtLNlMwKyAEHKZAwgYCdAkHa2bEZAFiBImYwBBOwECNLOls0IyAIEKZMxgICdAEHa2bIZAVmAIGUyBhCwEyBIO1s2IyALEKRMxgACdgIEaWfLZgRkAYKUyRhAwE6AIO1s2YyALECQMhkDCNgJEKSdLZsRkAUIUiZjAAE7AYK0s2UzArIAQcpkDCBgJ0CQdrZsRkAWIEiZjAEE7AQI0s6WzQjIAgQpkzGAgJ0AQdrZshkBWYAgZTIGELATIEg7WzYjIAsQpEzGAAJ2AgRpZ8tmBGQBgpTJGEDAToAg7WzZjIAsQJAyGQMI2AkQpJ0tmxGQBQhSJmMAATsBgrSzZTMCsgBBymQMIGAnQJB2tmxGQBYgSJmMAQTsBAjSzpbNCMgCBCmTMYCAnQBB2tmyGQFZgCBlMgYQsBMgSDtbNiMgCxCkTMYAAnYCBGlny2YEZAGClMkYQMBOgCDtbNmMgCxAkDIZAwjYCRCknS2bEZAFCFImYwABOwGCtLNlMwKyAEHKZAwgYCdAkHa2bEZAFiBImYwBBOwECNLOls0IyAIEKZMxgICdAEHa2bIZAVmAIGUyBhCwEyBIO1s2IyALEKRMxgACdgIEaWfLZgRkAYKUyRhAwE6AIO1s2YyALECQMhkDCNgJEKSdLZsRkAUIUiZjAAE7AYK0s2UzArIAQcpkDCBgJ0CQdrZsRkAWIEiZjAEE7AQI0s6WzQjIAgQpkzGAgJ0AQdrZshkBWYAgZTIGELATIEg7WzYjIAsQpEzGAAJ2AgRpZ8tmBGQBgpTJGEDAToAg7WzZjIAsQJAyGQMI2AkQpJ0tmxGQBQhSJmMAATsBgrSzZTMCsgBBymQMIGAnQJB2tmxGQBYgSJmMAQTsBAjSzpbNCMgCBCmTMYCAnQBB2tmyGQFZgCBlMgYQsBMgSDtbNiMgCxCkTMYAAnYCBGlny2YEZAGClMkYQMBOgCDtbNmMgCxAkDIZAwjYCRCknS2bEZAFCFImYwABOwGCtLNlMwKyAEHKZAwgYCdAkHa2bEZAFiBImYwBBOwECNLOls0IyAIEKZMxgICdAEHa2bIZAVmAIGUyBhCwEyBIO1s2IyALEKRMxgACdgIEaWfLZgRkAYKUyRhAwE6AIO1s2YyALECQMhkDCNgJEKSdLZsRkAUIUiZjAAE7AYK0s2UzArIAQcpkDCBgJ0CQdrZsRkAWIEiZjAEE7AQI0s6WzQjIAgQpkzGAgJ0AQdrZshkBWYAgZTIGELATIEg7WzYjIAsQpEzGAAJ2AgRpZ8tmBGQBgpTJGEDAToAg7WzZjIAsQJAyGQMI2AkQpJ0tmxGQBQhSJmMAATsBgrSzZTMCsgBBymQMIGAnQJB2tmxGQBYgSJmMAQTsBAjSzpbNCMgCBCmTMYCAnQBB2tmyGQFZgCBlMgYQsBMgSDtbNiMgCxCkTMYAAnYCBGlny2YEZAGClMkYQMBOgCDtbNmMgCxAkDIZAwjYCRCknS2b3SfQGmqtbKxcV7N+ZXD1sh3Lf1O9ZMmOZTm7VqytWV/cUNoaarV+lwjSWpj9LhCobqr+eNdvXyp/eUrB9BTf5Em+tEm+1ORB18tvSfP40p8pe25x9dLyxq2hcMjiHSNIC1V2ukOgJdTirfO/vPW1jPypyd7UJK9nojcl9jXJ60nyepJ9qU+UzFuxa1VrOMHPmQTpjocOZ5lwgZL60gVlL6b6MpKuFeFIiSZ5PTMLZ+cG8xJ4bgSZQExWuUOgvrX+f7a/le6fOlJp6tufL3upqqkqIe88QSaEkSXuEAiFQ8X1JfNKnp3kS1Ori338zIKHN+zeOPpPLAnSHY8kznL0AqFwaH3NxtlFWbHTivtPJ3nTFlcvHeVnlQQ5+juaDS4QaA23rg7mPVT4y7h7czKY7Et9r+qD0Xx3hCBd8GDiFEcpEAqHcoNrHiqc4ySqUR4zyZe2bMfyuJ8nCXKU9zXj17tAKBzKry98tOSJUZbmfNzjS99c87v4Pp8kyOv98cT5jVJgZ/Oul8tfTfFNdl5Uks+Tlp85OX/K5IIrV/WLQNMKZm1v3B7HmRNkHGiMuEagJdT6QfXiqfnTndc40ZuSFXi0qLN459Fg9Lpwx8uT/MIXZpN9qQvKXmgJtahSBKmKcbybBLy13rnFj0s1TvSmfBzOOXXuVP+gS+BgeUbBg9KeVH/Gav01AwTppocX5yoJNIeaf7XtPz2+dCmkid6U34ZXjD7IJK/nkaLHmkPN0jkTpMTFwW4S2FLrm1scz9dyEhLkRG9Kmj9zVTBXIiNIiYuDXSPQGmp9q/Ltyf4p6tNjop4hJ3pTkn2pzwW0zyQJ0jWPME5UEqhsqppf9nwcNSYwyInelIz8qSX1pc7PnCCdW3GkmwRyg3kPx/squUR9yDrRm+Lxpb9b9Z5zOIJ0bsWRrhEIhUOLKt+N7+PVxD5DJvtSnyp91vmLBAjSNQ8yTtS5QH1rQ3b5q/F9vJrYICd6U6YXzKptqXV48gTpEIrD3CSwrXHbs2ULYgSZ4p88pWj6tOJZw17X7Fl3+tzp/kGXisNVcwJzhz14WvEsjz/Wd1Yy8x8sqi92yEeQDqE4zE0ChXWFT5Q8FSPIedufWbt3fXFnybDXvT0d3174tn/Q5fCpw4GD5cMeXNxZkr0z1rNxun9KXs0ah3wE6RCKw9wksK5m/ZyiuTGCzGlb+b9nv+pP0GVbd0WMvyvNn7lkxzKHfATpEIrD3CSwKpgb+4etEhtkRXdljCBT/emLKt9xyEeQDqE4zE0CK3atmlU4O0Yk32eQHl/6m5WLHPIRpEMoDnOTwOpg3sMxfxz5+wwy1Z/xTqXTb0USpJseZ5yrQ4ENuzdlFT8W4xlycfOyg70He7/pHfZ69vzZi/0X+wddzkXOnfzm5LAH937T6/8kP8bflebPXL7jI4cHXvWmAAAFNklEQVRnTpAOoTjMTQKF9cVPlj4dI5LHts5b2rJ8dXvesNem3zd/EznXP+hy4KtP1nVsGPbg1e1586teiPF3pfunbti90SEfQTqE4jA3CVQ3VS8IvBgjkth/lNO26qofvyrtCmQUxPl7XDPzp5U1BBzyEaRDKA5zk0BTqPm1rW8ke1NjhzfSnyYwyCSvZ1bh7LqWOod8BOkQisNcJvBe1fsZ+drP+Ef7TGCQk3xpL5VnO7cjSOdWHOkmgU27Nz8S8+s60fyG3khgkGn+jA8df0UnHA4TpJseZJyrc4GdzTtfDGTH91FrAoO89OvnmiqcnzZBOrfiSJcJvF+1ODN/2tAnwGu+JVFBTvKlLSx/RVIjSImLg90kUFRfMq/0GSf/6uNViSYqyKn50711PomMICUuDnaTQHOo5Z2qX8fxpZ2EBHn5yzkvq//OB0G66RHGuaoCJQ1l88ueV3/v+LsN7x05daT30ktzBq696zo2TC7Qfl/W1IIZvjq/esIEqYpxvMsEVgVzHy6cI33g+nDpnI/DOWv3rh+45u1ZO79Sq9rjS//vijed/+aOqClBRim48cMUqG+tf7NiUUbi/r3kqz7hHPq/yV7PU6XP1rTsjgOUIONAY8RlAoGGwMLyV1L9GUPjSfhbkryeucWP/67WG58RQcbnxpTLBPLrCl4ILEzzZya8wMELk7yerOLHnL+UfCgiQQ414S0/TIGCuqIXAgvtnicHnhvX7V4/Gj6CHI0esy4TKKgrWFj+Sty/r3Xwk+FVt5O9qU+WPrNx96ZRihDkKAEZd5lAaUPZmxVvzyycHd+r6q7qcOB/M/OnvbL19YL6wtFbEOToDdngMoGG1oacnSsWBF6ckj9N+nbI0Bon+dKeKHnq/arfxPc11aFwBDnUhLeMC4FAQ/l7VR/ML3t+av70ZK9naGyx3+Lxpc8tfvw/tv+Xvy5f/UcgY/gSZAwc/ugHLtDQ2lDaULpsx4fZ5a9mFT+a7p9yzSdMjy/9oaI5CwIvLqp8d+PuzY2hxsQaEWRiPdnmSoHq5ur1NRs/qFr82tY3XggsfKLkqV8WPTK7KCt6fbTkyfllz7+y9fW3K99dHczd2rgtjlfhOKEhSCdKHDNeBGpadm9vqvDW+dbWrMurWZN7+ZpXs2Zz7ZayhkCwucaow6gvQUYpuIHA2AsQ5NjfB5wBAlEBgoxScAOBsRcgyLG/DzgDBKICBBml4AYCYy9AkGN/H3AGCEQFCDJKwQ0Exl6AIMf+PuAMEIgKEGSUghsIjL3AMEFmZGSEuCCAwFgI5OXl3Xb5csPAf+68886ZM2d+wQUBBMZCoKSk5I+CvOuuu7Kysvq5IIDAWAgEg8HbLl+uPEMS5FjcC/ydCFwRIEgeCghcRwIEeR3dGZwKAgTJYwCB60iAIK+jO4NTQYAg43wMnD9//ksuokBvb2+c3ONmjCDlu/rMmTOBQCArK2syF1FgxowZS5YsOXnypIw+bgYIUr6rDx06lJSUdNNNN93ARRS48cYb77nnHq/XK6OPmwGClO/qjo6OCRMmiA9FDr8icOutty5dulRGHzcDBCnf1V9++eUbb7xxyy23EJkqcPPNN6empjY1Ncno42aAIOW7OhKJHD16tKSkZBMXUcDv9zc3N589e1ZGHzcDBDlu7mreUTcIEKQb7iXOcdwIEOS4uat5R90gQJBuuJc4x3EjQJDj5q7mHXWDwNVB3nHHHffff/9HXBBAYCwEsrOzb7t8ufIDyrfffvuECRP+gQsCCIyFwN133z0Q5P8BStr93DoJAzcAAAAASUVORK5CYII=;" parent="XAqG9yTM0mnj5ErJSMa9-73" vertex="1">
          <mxGeometry y="10" width="80" height="130" as="geometry" />
        </mxCell>
        <mxCell id="XAqG9yTM0mnj5ErJSMa9-1" value="&lt;font style=&quot;color: light-dark(rgb(0, 0, 0), rgb(255, 255, 255));&quot;&gt;User&lt;/font&gt;" style="verticalLabelPosition=bottom;verticalAlign=top;html=1;shadow=0;dashed=0;strokeWidth=1;shape=mxgraph.android.phone2;strokeColor=#A50040;fillColor=#d80073;fontColor=#ffffff;" parent="XAqG9yTM0mnj5ErJSMa9-73" vertex="1">
          <mxGeometry width="80" height="150" as="geometry" />
        </mxCell>
        <mxCell id="9-N-8I6okf61MOFSpwi1-1" style="edgeStyle=orthogonalEdgeStyle;rounded=0;orthogonalLoop=1;jettySize=auto;html=1;entryX=0;entryY=0.25;entryDx=0;entryDy=0;" edge="1" parent="1" source="XAqG9yTM0mnj5ErJSMa9-1" target="XAqG9yTM0mnj5ErJSMa9-2">
          <mxGeometry relative="1" as="geometry" />
        </mxCell>
      </root>
    </mxGraphModel>
  </diagram>
</mxfile>
